<?xml version="1.0" encoding="UTF-8" standalone="no"?>
<!-- Created with Inkscape (http://www.inkscape.org/) -->

<svg
   width="123.87616mm"
   height="123.87614mm"
   viewBox="0 0 123.87616 123.87613"
   version="1.1"
   id="svg5"
   xml:space="preserve"
   sodipodi:docname="logo1.svg"
   inkscape:version="1.2.2 (732a01da63, 2022-12-09)"
   xmlns:inkscape="http://www.inkscape.org/namespaces/inkscape"
   xmlns:sodipodi="http://sodipodi.sourceforge.net/DTD/sodipodi-0.dtd"
   xmlns="http://www.w3.org/2000/svg"
   xmlns:svg="http://www.w3.org/2000/svg"><sodipodi:namedview
     id="namedview7"
     pagecolor="#ffffff"
     bordercolor="#999999"
     borderopacity="1"
     inkscape:showpageshadow="0"
     inkscape:pageopacity="0"
     inkscape:pagecheckerboard="0"
     inkscape:deskcolor="#d1d1d1"
     inkscape:document-units="mm"
     showgrid="false"
     inkscape:zoom="0.9483261"
     inkscape:cx="246.75056"
     inkscape:cy="1988.2401"
     inkscape:window-width="1920"
     inkscape:window-height="1001"
     inkscape:window-x="-9"
     inkscape:window-y="-9"
     inkscape:window-maximized="1"
     inkscape:current-layer="layer1" /><defs
     id="defs2" /><g
     inkscape:label="Layer 1"
     inkscape:groupmode="layer"
     id="layer1"
     transform="translate(-181.15644,-552.18724)"><g
       id="g1752"
       inkscape:export-filename="afford.svg"
       inkscape:export-xdpi="200"
       inkscape:export-ydpi="200"><rect
         style="fill:none;fill-rule:evenodd;stroke-width:4.99999;stroke-linecap:round;stroke-linejoin:bevel;stop-color:#000000"
         id="rect420"
         width="123.87616"
         height="123.87616"
         x="181.15643"
         y="552.18726" /><path
         style="fill:#ca0a0a;fill-opacity:1;stroke-width:0.191921"
         d="m 238.99189,662.79717 c -11.83178,-1.14417 -22.58136,-6.3089 -30.8602,-14.82705 -13.17642,-13.55731 -17.36321,-33.45801 -10.76894,-51.18711 5.09957,-13.71052 15.91139,-24.25182 29.6146,-28.87361 4.95767,-1.67212 9.0395,-2.39266 14.40973,-2.54364 5.58809,-0.15711 9.99051,0.36424 14.82434,1.75556 8.4553,2.43369 15.15685,6.37992 21.34744,12.57051 8.0916,8.0916 12.7854,17.8415 14.12236,29.33482 0.37011,3.18164 0.26647,9.41428 -0.20809,12.51426 -1.64401,10.73931 -6.55267,20.36725 -14.1427,27.7398 -7.39554,7.18363 -16.4838,11.63091 -27.03459,13.22921 -2.4238,0.36717 -8.80156,0.52924 -11.30395,0.28725 z m 8.53573,-5.76283 c 16.98811,-1.6531 31.71202,-13.3977 36.99469,-29.50899 4.5158,-13.77247 2.10475,-28.22384 -6.66597,-39.95458 -1.75417,-2.34619 -5.83468,-6.42451 -8.20878,-8.2044 -16.09282,-12.06492 -37.56098,-11.78832 -53.41783,0.68826 -1.97893,1.55708 -5.75259,5.43767 -7.31276,7.51999 -11.87103,15.84384 -11.87103,36.71178 0,52.58186 2.81534,3.76377 7.64947,8.10854 12.01484,10.79859 5.0158,3.09086 12.11893,5.48079 18.04064,6.06997 2.39265,0.23805 6.16227,0.24215 8.55517,0.009 z m -8.17132,-4.89755 c -0.26389,-0.0448 -1.12754,-0.17454 -1.91922,-0.28822 -8.73795,-1.2547 -17.6538,-6.27595 -23.42877,-13.19469 -4.41266,-5.28663 -7.24953,-11.35795 -8.55117,-18.30076 -0.40327,-2.15103 -0.56511,-8.40943 -0.28006,-10.83028 1.53535,-13.03917 9.41688,-24.23385 21.23291,-30.15859 2.97757,-1.49299 7.27302,-2.86956 11.02709,-3.53387 1.94717,-0.34457 9.95197,-0.34457 11.89915,0 2.27583,0.40273 5.51595,1.27997 7.59143,2.05534 11.68671,4.36603 20.57391,14.29352 23.69416,26.46767 0.93767,3.65846 1.05321,4.70186 1.05321,9.51065 0,4.80879 -0.11554,5.85219 -1.05321,9.51066 -2.36052,9.20996 -7.91995,17.07671 -15.81202,22.37446 -4.55703,3.05902 -9.30182,4.98043 -14.93407,6.04758 -1.52231,0.28843 -9.33676,0.54105 -10.51943,0.34005 z m 8.34859,-5.8559 c 10.89113,-1.37486 20.50401,-8.44745 25.33082,-18.63695 5.79063,-12.22415 3.17614,-27.12438 -6.45496,-36.78738 -6.81969,-6.84229 -15.74735,-10.20945 -25.44918,-9.59844 -16.13584,1.01622 -29.33462,14.215 -30.35084,30.35085 -0.74878,11.88944 4.65119,22.86938 14.46933,29.4209 6.70525,4.47433 14.38361,6.2699 22.45483,5.25102 z m -4.60612,-13.97268 c -0.31667,-0.19949 -3.78541,-3.58899 -7.7083,-7.53221 -7.64322,-7.68282 -7.70136,-7.75624 -7.3555,-9.28972 0.16084,-0.71315 0.74736,-1.48019 1.43736,-1.87976 0.24862,-0.14398 2.04204,-0.25608 5.09093,-0.31824 l 4.70708,-0.096 1.29873,-0.63984 c 0.94655,-0.46633 1.5113,-0.90869 2.08265,-1.63133 l 0.78393,-0.9915 -6.82396,-0.096 c -6.51322,-0.0916 -6.84809,-0.11398 -7.35365,-0.49167 -1.72877,-1.29148 -1.7421,-3.50084 -0.0285,-4.72307 0.62111,-0.44301 0.6868,-0.4478 7.43986,-0.54291 l 6.81322,-0.096 -1.24749,-1.26258 c -1.84535,-1.86768 -2.16686,-1.95289 -7.67686,-2.03457 -3.72318,-0.0552 -4.6198,-0.12233 -5.13845,-0.38472 -1.83943,-0.9306 -1.938,-3.74706 -0.16939,-4.84012 0.64493,-0.39859 0.77807,-0.40236 14.15889,-0.40166 13.05873,7.3e-4 13.52826,0.0131 14.12225,0.37536 1.70871,1.04186 1.67432,3.74423 -0.0613,4.81907 -0.54619,0.33824 -0.98591,0.37059 -5.03795,0.37059 -2.44174,0 -4.43952,0.0461 -4.43952,0.10234 0,0.0563 0.20412,0.5097 0.4536,1.00759 0.24948,0.49788 0.55634,1.22269 0.6819,1.61067 l 0.22829,0.70542 3.78028,0.0622 c 3.59979,0.0593 3.81021,0.0836 4.40693,0.50921 0.81282,0.57976 1.25836,1.4595 1.25959,2.4872 0.001,0.93364 -0.42386,1.62832 -1.40448,2.29572 -0.60363,0.41082 -0.81382,0.43182 -4.32285,0.43182 h -3.68838 l -0.43168,1.19951 c -0.65175,1.81102 -1.588,3.22532 -3.04501,4.59979 -2.06168,1.94488 -4.23647,2.9757 -7.00887,3.32209 l -1.11223,0.13896 4.69523,4.72601 c 4.95639,4.98889 5.11786,5.21001 4.84945,6.64076 -0.14649,0.78083 -0.72854,1.54909 -1.46033,1.92752 -0.76451,0.39534 -2.08106,0.35734 -2.77545,-0.0801 z"
         id="path332" /></g></g></svg>
