<?xml version="1.0" encoding="UTF-8" standalone="no"?>
<!-- Created with Inkscape (http://www.inkscape.org/) -->

<svg
   width="123.87615mm"
   height="123.87614mm"
   viewBox="0 0 123.87615 123.87613"
   version="1.1"
   id="svg5"
   xml:space="preserve"
   sodipodi:docname="logo1.svg"
   inkscape:version="1.2.2 (732a01da63, 2022-12-09)"
   xmlns:inkscape="http://www.inkscape.org/namespaces/inkscape"
   xmlns:sodipodi="http://sodipodi.sourceforge.net/DTD/sodipodi-0.dtd"
   xmlns="http://www.w3.org/2000/svg"
   xmlns:svg="http://www.w3.org/2000/svg"><sodipodi:namedview
     id="namedview7"
     pagecolor="#ffffff"
     bordercolor="#999999"
     borderopacity="1"
     inkscape:showpageshadow="0"
     inkscape:pageopacity="0"
     inkscape:pagecheckerboard="0"
     inkscape:deskcolor="#d1d1d1"
     inkscape:document-units="mm"
     showgrid="false"
     inkscape:zoom="0.9483261"
     inkscape:cx="246.75056"
     inkscape:cy="1988.2401"
     inkscape:window-width="1920"
     inkscape:window-height="1001"
     inkscape:window-x="-9"
     inkscape:window-y="-9"
     inkscape:window-maximized="1"
     inkscape:current-layer="layer1" /><defs
     id="defs2" /><g
     inkscape:label="Layer 1"
     inkscape:groupmode="layer"
     id="layer1"
     transform="translate(-351.90468,-552.18724)"><g
       id="g1756"
       inkscape:export-filename="fast.svg"
       inkscape:export-xdpi="200"
       inkscape:export-ydpi="200"><rect
         style="fill:none;fill-rule:evenodd;stroke-width:4.99999;stroke-linecap:round;stroke-linejoin:bevel;stop-color:#000000"
         id="rect422"
         width="123.87616"
         height="123.87616"
         x="351.90466"
         y="552.18726" /><path
         style="fill:#ca0a0a;fill-opacity:1;stroke-width:0.231832"
         d="m 393.88995,653.53106 c -2.44067,-0.63939 -3.86757,-1.48516 -5.84538,-3.46474 -1.37411,-1.37535 -1.91514,-2.12682 -2.55016,-3.54215 l -0.80603,-1.79645 -2.71263,-2.3e-4 c -1.49194,-1.4e-4 -3.26546,-0.11554 -3.94114,-0.25645 -4.63829,-0.96728 -8.13218,-4.78867 -8.7742,-9.59671 -0.14746,-1.10434 -0.21876,-4.95679 -0.17623,-9.52259 l 0.0714,-7.66792 0.62496,-0.94386 c 0.44007,-0.6646 0.9367,-1.06291 1.67865,-1.34626 1.7334,-0.66199 3.23563,-0.19463 4.40521,1.37049 0.45741,0.6121 0.48298,1.01078 0.59391,9.25897 0.11496,8.54835 0.12041,8.62655 0.6609,9.49592 0.88733,1.42723 1.89004,1.78953 4.9518,1.78924 l 2.61735,-2.3e-4 0.77417,-1.72186 c 1.40321,-3.12097 4.32362,-5.75569 7.64357,-6.89583 2.19936,-0.75529 5.77124,-0.75529 7.9706,0 3.31995,1.14014 6.24037,3.77486 7.64358,6.89583 l 0.77416,1.72186 9.91085,2.3e-4 9.91083,2.4e-4 v -26.51055 -26.51053 l -0.52162,-0.76642 c -0.28689,-0.42153 -0.81588,-0.98468 -1.17552,-1.25141 -0.622,-0.46132 -1.00731,-0.49064 -7.90098,-0.6009 l -7.24709,-0.11591 -0.81807,-0.62446 c -2.12425,-1.6215 -2.06262,-4.44405 0.13284,-6.08437 0.60765,-0.454 0.98844,-0.48138 7.58873,-0.54574 4.16508,-0.0407 7.47537,0.0295 8.2629,0.17513 4.15467,0.76803 7.65407,4.06961 8.74247,8.24823 0.2578,0.98979 0.35499,2.55539 0.35499,5.71899 v 4.35611 l 5.73785,0.005 c 6.16767,0.006 7.04242,0.11645 9.24148,1.16597 2.63429,1.25724 3.41017,2.19064 9.81091,11.80271 8.28705,12.44474 7.89814,11.16935 7.89814,25.90091 0,11.23485 0.0178,11.09606 -1.57874,12.31485 -0.81701,0.62371 -0.82352,0.62453 -5.47836,0.6952 l -4.66038,0.0707 -0.80106,1.78391 c -0.62901,1.40076 -1.17566,2.15884 -2.54519,3.5296 -2.00523,2.00704 -3.40972,2.82925 -5.93692,3.47561 -2.26788,0.58002 -3.95199,0.58002 -6.21987,0 -2.52719,-0.64636 -3.93169,-1.46857 -5.93692,-3.47561 -1.3741,-1.37535 -1.91513,-2.12681 -2.55015,-3.54214 l -0.80604,-1.79645 h -11.70753 -11.70755 l -0.80603,1.79645 c -0.63502,1.41533 -1.17605,2.16679 -2.55015,3.54214 -2.00523,2.00704 -3.40973,2.82925 -5.93693,3.47561 -2.22229,0.56836 -4.11279,0.56511 -6.3114,-0.0109 z m 4.91332,-7.23112 c 1.27341,-0.37625 3.19395,-2.29678 3.57019,-3.5702 0.64226,-2.17374 0.18946,-3.90653 -1.44895,-5.54493 -2.29456,-2.29456 -5.4032,-2.31798 -7.70825,-0.0581 -2.27486,2.23029 -2.25747,5.42227 0.0421,7.72676 1.62624,1.62974 3.37797,2.0867 5.54494,1.44645 z m 48.22116,0 c 1.27341,-0.37625 3.19395,-2.29678 3.5702,-3.5702 0.64225,-2.17374 0.18945,-3.90653 -1.44896,-5.54493 -2.29456,-2.29456 -5.4032,-2.31798 -7.70825,-0.0581 -2.27486,2.23029 -2.25747,5.42227 0.0421,7.72676 1.62624,1.62974 3.37797,2.0867 5.54495,1.44645 z m 14.96593,-16.93163 c -0.0123,-6.8427 -0.0694,-8.11651 -0.41391,-9.21534 l -0.39975,-1.27508 -12.22095,-0.0601 -12.22097,-0.06 v 6.23895 6.23894 l 1.51244,-0.99337 c 2.26167,-1.48547 4.35242,-2.09254 7.18127,-2.08516 1.79629,0.004 2.66759,0.12536 3.8694,0.53593 3.3144,1.13229 6.23951,3.77017 7.64357,6.89303 l 0.77416,1.72188 2.14444,2.2e-4 2.14446,2.3e-4 -0.0142,-7.94026 z m -5.92679,-18.31477 c -0.0949,-0.15938 -1.61343,-2.45224 -3.37457,-5.09525 -2.67397,-4.01295 -3.35358,-4.88276 -4.12083,-5.27419 -0.84507,-0.43112 -1.35664,-0.46873 -6.37609,-0.46873 h -5.4573 v 5.56398 5.56398 h 9.75065 c 7.73797,0 9.71504,-0.0598 9.57814,-0.28979 z m -80.9546,-0.1001 c -0.42337,-0.20863 -1.04932,-0.74583 -1.39099,-1.19379 -0.50742,-0.66526 -0.62123,-1.05887 -0.62123,-2.14855 0,-1.4411 0.38555,-2.1883 1.59571,-3.0925 0.60547,-0.4524 0.9926,-0.48164 7.23189,-0.54614 7.38799,-0.0764 7.67388,-0.027 8.86272,1.53168 0.50794,0.66595 0.62445,1.06335 0.62445,2.12988 0,1.06651 -0.11651,1.46393 -0.62445,2.12987 -1.16023,1.52113 -1.481,1.58007 -8.56797,1.57417 -5.39495,-0.004 -6.45514,-0.0619 -7.11013,-0.38462 z m -7.41864,-14.83727 c -0.42337,-0.20863 -1.04932,-0.74585 -1.39099,-1.1938 -0.50743,-0.66526 -0.62123,-1.05886 -0.62123,-2.14854 0,-1.44129 0.38572,-2.18867 1.59605,-3.09251 0.62765,-0.46872 0.91182,-0.47922 14.66088,-0.54122 15.63496,-0.0706 15.00746,-0.1294 16.27067,1.52677 0.89189,1.16933 0.89189,3.0904 0,4.25973 -1.24858,1.63697 -0.67052,1.58005 -15.98661,1.57417 -12.26422,-0.004 -13.84263,-0.0465 -14.52877,-0.3846 z m -7.41864,-14.83729 c -0.42337,-0.20862 -1.04932,-0.74583 -1.391,-1.19379 -0.50741,-0.66526 -0.62122,-1.05887 -0.62122,-2.14855 0,-1.44132 0.38576,-2.18873 1.59613,-3.0925 0.63431,-0.47364 0.83557,-0.47856 22.08314,-0.53951 23.89697,-0.0685 22.39642,-0.16516 23.68561,1.52504 0.8919,1.16935 0.8919,3.09041 0,4.25975 -1.27932,1.67728 0.16642,1.58005 -23.40525,1.57417 -19.1332,-0.004 -21.25196,-0.0419 -21.94741,-0.38461 z"
         id="path355" /></g></g></svg>
