<?xml version="1.0" encoding="UTF-8" standalone="no"?>
<!-- Created with Inkscape (http://www.inkscape.org/) -->

<svg
   width="123.87616mm"
   height="123.87614mm"
   viewBox="0 0 123.87616 123.87613"
   version="1.1"
   id="svg5"
   xml:space="preserve"
   sodipodi:docname="logo1.svg"
   inkscape:version="1.2.2 (732a01da63, 2022-12-09)"
   xmlns:inkscape="http://www.inkscape.org/namespaces/inkscape"
   xmlns:sodipodi="http://sodipodi.sourceforge.net/DTD/sodipodi-0.dtd"
   xmlns="http://www.w3.org/2000/svg"
   xmlns:svg="http://www.w3.org/2000/svg"><sodipodi:namedview
     id="namedview7"
     pagecolor="#ffffff"
     bordercolor="#999999"
     borderopacity="1"
     inkscape:showpageshadow="0"
     inkscape:pageopacity="0"
     inkscape:pagecheckerboard="0"
     inkscape:deskcolor="#d1d1d1"
     inkscape:document-units="mm"
     showgrid="false"
     inkscape:zoom="0.9483261"
     inkscape:cx="246.75056"
     inkscape:cy="1988.2401"
     inkscape:window-width="1920"
     inkscape:window-height="1001"
     inkscape:window-x="-9"
     inkscape:window-y="-9"
     inkscape:window-maximized="1"
     inkscape:current-layer="layer1" /><defs
     id="defs2" /><g
     inkscape:label="Layer 1"
     inkscape:groupmode="layer"
     id="layer1"
     transform="translate(-10.408218,-549.1671)"><g
       id="g1581"
       inkscape:export-filename="fresh.svg"
       inkscape:export-xdpi="200"
       inkscape:export-ydpi="200"><rect
         style="fill:none;fill-rule:evenodd;stroke-width:4.99999;stroke-linecap:round;stroke-linejoin:bevel;stop-color:#000000"
         id="rect418"
         width="123.87616"
         height="123.87616"
         x="10.408216"
         y="549.16711" /><path
         style="fill:#ca0a0a;fill-opacity:1;stroke-width:0.204349"
         d="m 56.789302,646.77775 c -11.928318,-1.8927 -21.25512,-9.13487 -27.412459,-21.2855 -3.895753,-7.68772 -6.230671,-16.75269 -6.596524,-25.60998 -0.139362,-3.3739 0.02703,-3.97904 1.339651,-4.87188 0.699855,-0.47604 0.785513,-0.48404 3.984825,-0.37183 4.948578,0.17355 10.780775,1.16953 16.278995,2.77998 2.731015,0.79994 7.354236,2.56394 9.258539,3.53265 l 1.015535,0.51657 0.84402,-2.28176 c 2.280787,-6.16603 6.26108,-13.01741 10.905641,-18.77214 3.9284,-4.86742 4.93896,-5.62227 6.785966,-5.06888 1.01138,0.30301 2.203064,1.48925 5.092117,5.06888 4.644561,5.75473 8.624848,12.60611 10.905632,18.77214 l 0.844022,2.28176 1.015535,-0.51657 c 0.558545,-0.28413 2.256965,-1.01505 3.774263,-1.62426 6.59399,-2.64753 14.95574,-4.44877 21.76327,-4.68811 3.19953,-0.11247 3.28494,-0.10457 3.98483,0.37157 1.30193,0.88557 1.47904,1.51164 1.34021,4.73722 -0.66421,15.43232 -6.90854,30.31401 -16.20454,38.61922 -2.2121,1.97633 -5.720422,4.34692 -8.045969,5.43672 -2.19836,1.03017 -5.393464,2.10092 -8.048721,2.69729 -2.00057,0.44932 -2.348305,0.45998 -16.55235,0.50785 -11.477946,0.0386 -14.877276,-0.01 -16.272488,-0.23094 z m 7.99631,-5.77082 c 0,-0.0848 -4.649818,-4.79752 -10.332927,-10.47292 -5.683104,-5.67541 -10.464894,-10.56724 -10.626198,-10.87075 -0.161295,-0.30348 -0.293267,-0.92875 -0.293267,-1.38949 0,-2.00486 1.639599,-3.33902 3.643181,-2.96449 0.604431,0.11297 1.259719,0.64334 3.369815,2.72739 l 2.619483,2.58713 -0.167284,-1.32828 c -0.183958,-1.46075 -0.226806,-8.31971 -0.06511,-10.42186 l 0.102191,-1.32826 -1.430455,-0.75571 c -4.751461,-2.51017 -12.97206,-4.91358 -19.413244,-5.67577 -1.011534,-0.11975 -2.138018,-0.25611 -2.503291,-0.3031 -0.615607,-0.0793 -0.664132,-0.0423 -0.664132,0.50428 0,1.04365 0.61342,5.34111 1.122667,7.86508 1.371678,6.79842 3.84773,12.95607 7.277512,18.09829 1.994236,2.98997 5.861754,7.01021 8.415572,8.74791 3.040378,2.06881 7.373342,3.88222 10.771489,4.50805 2.58604,0.47624 8.174006,0.79927 8.174006,0.4725 z m 19.821952,-0.0529 c 2.901884,-0.2512 4.037822,-0.46615 6.64137,-1.25666 4.537681,-1.37781 7.970924,-3.51132 11.760276,-7.30819 5.665,-5.67626 9.52166,-13.42434 11.52899,-23.1618 0.51348,-2.49082 1.13056,-6.80284 1.13056,-7.90003 0,-0.56613 -0.0191,-0.57559 -0.97066,-0.48175 -7.69352,0.7586 -16.536598,3.20872 -21.814364,6.04403 l -1.2261,0.65869 0.102166,1.32679 c 0.161713,2.09995 0.118855,8.95972 -0.06511,10.4204 l -0.167285,1.32829 2.619476,-2.58713 c 2.163642,-2.13691 2.756256,-2.6127 3.405506,-2.73409 1.618066,-0.3025 3.140371,0.65862 3.583161,2.2623 0.44374,1.60709 0.57384,1.45214 -10.721055,12.76815 -5.778857,5.78967 -10.507007,10.59444 -10.507007,10.6773 0,0.20832 1.90707,0.18549 4.700052,-0.0564 z M 69.752202,605.94277 c 1.26572,-1.93123 4.270804,-1.77343 5.301685,0.2784 0.330387,0.65761 0.357312,1.83399 0.357613,15.62173 l 4.08e-4,14.91055 1.140741,-1.11693 c 10.482309,-10.26374 12.117404,-24.1335 4.660624,-39.53475 -1.251934,-2.58575 -3.297301,-6.04811 -4.815463,-8.15155 -1.580268,-2.18947 -3.862428,-5.02903 -4.041851,-5.02903 -0.284177,0 -3.388794,4.11968 -5.312972,7.05008 -2.245889,3.42032 -4.997204,8.90327 -6.11679,12.18982 -4.344765,12.75405 -2.183624,23.30133 6.752972,32.95747 l 1.499966,1.62075 0.102191,-15.11698 c 0.09548,-14.12649 0.126329,-15.15383 0.470884,-15.67956 z"
         id="path255"
         sodipodi:nodetypes="csssssscssssscssssssssscsssssscsscsssssssssscsssssscsscsssssccssscssssssscsss" /></g></g></svg>
