<?xml version="1.0" encoding="UTF-8" standalone="no"?>
<!-- Created with Inkscape (http://www.inkscape.org/) -->

<svg
   width="85.072815mm"
   height="16.461021mm"
   viewBox="0 0 85.072815 16.461021"
   version="1.1"
   id="svg5"
   xml:space="preserve"
   xmlns:inkscape="http://www.inkscape.org/namespaces/inkscape"
   xmlns:sodipodi="http://sodipodi.sourceforge.net/DTD/sodipodi-0.dtd"
   xmlns="http://www.w3.org/2000/svg"
   xmlns:svg="http://www.w3.org/2000/svg"><sodipodi:namedview
     id="namedview7"
     pagecolor="#ffffff"
     bordercolor="#999999"
     borderopacity="1"
     inkscape:showpageshadow="0"
     inkscape:pageopacity="0"
     inkscape:pagecheckerboard="0"
     inkscape:deskcolor="#d1d1d1"
     inkscape:document-units="mm"
     showgrid="false" /><defs
     id="defs2" /><g
     inkscape:label="Layer 1"
     inkscape:groupmode="layer"
     id="layer1"
     transform="translate(-57.280275,-115.83068)"><g
       id="g4093"
       inkscape:export-filename="logo.svg"
       inkscape:export-xdpi="200"
       inkscape:export-ydpi="200"><g
         aria-label="traytrap"
         id="text236"
         style="font-size:15.3437px;line-height:2.05;font-family:'Bankai Demo Version';-inkscape-font-specification:'Bankai Demo Version, Normal';letter-spacing:0.814718px;fill:#ca0a0a;stroke-width:0.407358"><path
           d="m 59.977413,127.27884 q -0.06743,-0.0225 -0.119873,-0.045 -0.05244,-0.0225 -0.06743,-0.0375 0,-0.008 -0.02997,-0.0225 -0.02248,-0.007 -0.04495,-0.015 -0.05244,-0.0225 -0.142348,-0.11239 -0.08241,-0.0824 -0.164825,-0.19479 -0.08241,-0.11238 -0.127365,-0.20228 -0.02248,-0.0599 -0.03746,-0.13486 -0.01498,-0.0824 -0.01498,-0.21727 0,-0.13486 0,-0.26971 V 125.713 q 0,-0.33714 0.0075,-0.71174 0.01498,-0.3746 0.03746,-0.61435 0.03746,-0.53193 0.03746,-1.04889 0,-0.39707 -0.02248,-0.78666 -0.03746,-0.85409 -0.06743,-1.1313 0,-0.045 -0.0075,-0.0824 0,-0.045 -0.0075,-0.0524 -0.02997,-0.0375 -0.501967,-0.0375 -0.464507,0 -0.69676,-0.045 -0.232253,-0.0524 -0.36711,-0.17981 -0.02997,-0.0225 -0.05244,-0.045 -0.02248,-0.03 -0.02248,-0.045 0,-0.015 -0.01499,-0.03 -0.01498,-0.0225 -0.04495,-0.0375 -0.02248,-0.015 -0.04495,-0.0375 -0.02997,-0.03 -0.04495,-0.0599 -0.01498,-0.0375 -0.01498,-0.045 v -0.007 q 0.0075,0 0.01498,0.007 0.02248,0.007 0.02997,0.007 v -0.007 q 0,-0.015 -0.01498,-0.045 -0.02248,-0.03 -0.05994,-0.0674 -0.05994,-0.0674 -0.07492,-0.11238 -0.01498,-0.045 -0.01498,-0.0674 0,-0.0375 0.02248,-0.0524 0.01498,-0.015 0.02997,-0.03 0.0075,-0.0225 0.01498,-0.0375 0,-0.0225 0,-0.03 l -0.0075,-0.015 -0.0075,-0.007 -0.01498,0.007 h -0.0075 q -0.0075,0 -0.01498,-0.0375 v -0.12737 q 0,-0.0674 0.01498,-0.14235 0.0075,-0.0749 0.02997,-0.11987 0.04495,-0.11238 0.119873,-0.13486 h 0.02997 q 0.05994,0 0.187301,0.015 0.179809,0.015 0.412062,0.045 0.232254,0.03 0.457015,0.0599 0.224761,0.0225 0.32965,0.03 l 0.247237,0.015 -0.02248,-0.21727 q -0.07492,-0.77168 -0.299682,-2.12774 -0.0974,-0.5619 -0.127364,-0.80914 -0.02248,-0.25473 -0.02248,-0.38209 0,-0.0749 0.0075,-0.12737 0.02248,-0.14984 0.0974,-0.23225 0.02248,-0.0375 0.03746,-0.0375 0.01498,0 0.02248,0 0.01498,0 0.04495,0.015 0.02248,0.007 0.03746,0.007 h 0.01498 q 0.01498,0 0.02248,-0.03 0.0075,-0.0225 0.02997,-0.03 0.02248,-0.015 0.07492,-0.015 0.05244,-0.007 0.157333,-0.007 0.14984,0 0.209777,0.015 0.05994,0.007 0.08241,0.03 0.02997,0.03 0.05994,0.0524 0.03746,0.0225 0.05245,0.0225 0.01498,0 0.02248,0 0.01498,0 0.01498,-0.015 0,-0.007 0.01498,-0.007 h 0.01498 q 0.02248,0.007 0.05994,0.0225 0.04495,0.0225 0.06743,0.045 0.02997,0.015 0.02997,0.03 0,0.007 0.02248,0.03 0.02997,0.0225 0.07492,0.0524 0.04495,0.0225 0.07492,0.0524 0.03746,0.0225 0.05244,0.045 0.0075,0.015 0.02997,0.03 0.02997,0.007 0.05244,0.007 0.02997,0 0.05244,0.015 0.02248,0.015 0.02997,0.0375 0.0075,0.015 0.02248,0.015 l 0.0075,0.007 h 0.02248 q 0.01499,0 0.02248,0.015 l 0.0075,0.03 -0.0075,0.045 q 0,0.007 0.0075,0.007 0.0075,0 0.01498,0 h 0.02248 q 0.02248,0 0.06743,0.0225 0.04495,0.0375 0.0899,0.0824 0.04495,0.0375 0.04495,0.0674 0,0.007 0.0075,0.0225 0.0075,0.008 0.02248,0.008 0.0075,0 0.03746,0.045 0.03746,0.045 0.06743,0.11238 0.0899,0.15733 0.11238,0.49447 0.02248,0.32965 0.02248,0.68178 0,0.35213 -0.01498,0.83911 l -0.01498,1.07136 h 0.134857 q 0.32965,0.007 1.13879,0.0599 0.224761,0.015 0.374602,0.015 0.149841,0 0.224762,0 h 0.127364 q 0.104889,0 0.104889,-0.007 0,-0.007 -0.0075,-0.007 v -0.008 q 0,-0.007 0.0075,-0.015 0.01498,-0.015 0.04495,-0.0225 0.02248,-0.007 0.04495,-0.007 0.05244,0 0.08991,0.03 0.02248,0.0225 0.03746,0.0225 v -0.008 q 0,-0.015 -0.0075,-0.0375 -0.01498,-0.0375 -0.01498,-0.045 0.0075,0 0.03746,0.0375 0.02248,0.03 0.02248,0.0525 v 0.007 q 0,0.0225 -0.05244,0.0599 -0.02997,0.0225 -0.127365,0.0749 -0.0974,0.045 -0.194793,0.0899 -0.0974,0.045 -0.127365,0.0524 -0.02248,0 -0.142348,0.0375 -0.02248,0.008 -0.02248,0.0225 0,0.007 0,0.015 0,0.015 0.0075,0.0225 0.0075,0.0225 0.03746,0.0225 0.01498,0 0.01498,-0.015 0,-0.007 -0.0075,-0.0225 -0.0075,-0.007 -0.0075,-0.015 0,-0.007 0.01498,-0.007 0.01498,0 0.04495,0.007 0.02997,0.015 0.04495,0.015 0.0075,0 0.0075,-0.007 0,-0.007 -0.0075,-0.0225 -0.0075,-0.015 -0.0075,-0.0225 0,-0.007 0.0075,-0.007 0.0075,0 0.02248,0.007 h 0.04495 q 0.01498,0 0.01498,-0.015 0.0075,-0.0225 0.01498,-0.0225 0.01498,0 0.02248,0.0225 0,0.0225 -0.127365,0.0824 -0.119872,0.0599 -0.299681,0.12736 -0.172317,0.0674 -0.314666,0.10489 -0.05244,0.015 -0.127365,0.045 -0.07492,0.03 -0.134856,0.0599 -0.08241,0.045 -0.262222,0.11238 -0.172317,0.0674 -0.352126,0.12737 -0.179809,0.0599 -0.277205,0.0749 l -0.0974,0.0225 0.02248,0.91403 q 0.0075,0.40457 0.02248,0.91403 0.02248,0.50946 0.03746,0.89905 0.01498,0.38958 0.02248,0.88406 0.01498,0.48698 0.01498,0.85409 v 0.59936 q 0.0075,0.24724 0.01498,0.26223 0.0075,0 0.07492,-0.0674 0.07492,-0.0674 0.172317,-0.16483 0.0974,-0.0974 0.179809,-0.1873 0.08241,-0.0974 0.119873,-0.14984 0.02248,-0.03 0.03746,-0.0375 0.02248,-0.015 0.03746,-0.015 h 0.01498 l 0.01498,0.007 q 0.0075,0 0.0075,-0.007 v -0.008 q -0.0075,-0.015 -0.0075,-0.03 v -0.007 q 0.0075,-0.007 0.01498,-0.007 h 0.01498 q 0.02248,0 0.03746,0.0225 0.01498,0.015 0.02248,0.0899 0.0075,0.0749 0.0075,0.14235 0.0075,0.0674 0.0075,0.10489 0,0.0375 -0.0075,0.0674 -0.0075,0.0599 -0.02248,0.0599 l -0.0075,-0.007 -0.0075,0.007 q -0.01498,0.015 -0.02248,0.0375 -0.0075,0.015 -0.0075,0.0225 0,0.007 0.0075,0.007 l 0.01498,-0.007 h 0.0075 q 0.0075,0 0.01498,0.007 0.0075,0.015 0.0075,0.045 0,0.045 -0.02248,0.045 -0.0075,0 -0.01498,-0.008 l -0.01498,-0.007 v 0.007 l 0.0075,0.015 q 0.0075,0.007 0.0075,0.0375 0,0.0225 -0.0075,0.0599 -0.01498,0.0749 -0.03746,0.16482 -0.01498,0.0824 -0.04495,0.14984 -0.02248,0.0599 -0.03746,0.0599 -0.01498,0 -0.01498,0.007 v 0.007 q 0.0075,0.007 0.0075,0.015 0,0.0225 -0.02248,0.0599 -0.03746,0.0599 -0.104889,0.12737 -0.05994,0.0674 -0.119872,0.11987 -0.202286,0.14984 -0.501967,0.15733 -0.06743,0.007 -0.112381,0.015 -0.04495,0.015 -0.04495,0.0225 0,0.007 -0.0075,0.007 h -0.0075 q -0.01498,-0.007 -0.02997,-0.03 -0.02997,-0.045 -0.04495,-0.045 -0.0075,0 -0.0075,0.0375 0,0.0225 -0.01498,0.0375 -0.01498,0.015 -0.02997,0.015 -0.01498,0 -0.01498,-0.03 0,-0.007 -0.02248,-0.0225 -0.01498,-0.015 -0.03746,-0.015 -0.02997,-0.007 -0.04495,-0.007 -0.02248,0 -0.02248,0.015 0,0.03 -0.05244,0.03 h -0.02248 q -0.07492,0 -0.202285,-0.045 z m 2.64469,-7.2523 0.0075,-0.015 q 0,-0.015 -0.0075,-0.015 -0.02248,0 -0.0899,0.03 -0.04495,0.015 -0.04495,0.0225 0,0.007 0.01498,0.007 h 0.02997 q 0.02997,0 0.05244,-0.007 0.02997,-0.007 0.03746,-0.0225 z m 0.36711,0 v -0.015 q 0,-0.015 0.01498,-0.015 0.01499,0 0.02248,-0.007 0.01498,-0.007 0.01498,-0.0225 0,-0.015 -0.01498,-0.0225 -0.01498,-0.007 -0.02997,-0.007 -0.02248,0 -0.02997,0.015 -0.0075,0.015 -0.0075,0.0375 0,0.007 0.0075,0.007 0,0.03 0,0.045 0.0075,0.015 0.0075,0.0225 0.0075,0 0.01498,0 h 0.0075 q 0.0075,0 0,-0.007 0,-0.015 -0.0075,-0.03 z m -0.239745,-0.015 q -0.0075,-0.007 -0.02248,-0.007 -0.01498,0 -0.03746,0.007 l -0.0075,0.007 q 0,0.007 0.02997,0.007 0.02248,0 0.02997,-0.007 h 0.01498 z m -3.521259,-4.06818 -0.0075,-0.015 q -0.0075,0 -0.01498,0.0375 0,0.0225 0.0075,0.03 l 0.0075,0.008 h 0.0075 q 0.0075,-0.008 0.0075,-0.0225 0,-0.015 -0.0075,-0.0375 z m -0.05994,-0.03 -0.0075,-0.015 q -0.0075,0 -0.01498,0.0375 0,0.0225 0.0075,0.03 v 0.007 h 0.0075 q 0.0075,-0.007 0.0075,-0.0225 0.0075,-0.0225 0,-0.0375 z"
           id="path4132" /><path
           d="m 65.564561,127.34627 q 0.0075,-0.008 0.0075,-0.015 0,-0.007 -0.01498,-0.007 l -0.02997,0.007 q -0.01498,0.007 -0.03746,0.007 h -0.02248 q -0.02997,-0.007 -0.06743,-0.03 -0.04495,-0.03 -0.05245,-0.03 -0.0075,0 -0.0075,0.007 0,0.007 0.0075,0.0225 l 0.0075,0.015 -0.0075,0.007 h -0.04495 q -0.02997,-0.007 -0.104888,-0.03 -0.06743,-0.0225 -0.119873,-0.045 -0.05244,-0.0225 -0.05994,-0.0375 -0.01498,-0.015 -0.05244,-0.03 -0.02997,-0.007 -0.07492,-0.007 -0.03746,-0.007 -0.08241,-0.03 -0.04495,-0.015 -0.07492,-0.0375 -0.149841,-0.14235 -0.217269,-0.22476 -0.05994,-0.0824 -0.08241,-0.16482 -0.03746,-0.1948 -0.0899,-1.46095 -0.04495,-1.27365 -0.08241,-3.07174 -0.0075,-0.30717 -0.0075,-0.59187 0,-0.43454 0.01499,-0.80914 0.02997,-0.62184 0.08241,-0.7492 0.02997,-0.0599 0.06743,-0.10489 0.03746,-0.045 0.05994,-0.0599 0.02997,-0.0225 0.04495,-0.0225 0.0075,0 0.01498,0.015 0.0075,0.007 0.03746,0.007 0.03746,0 0.06743,0 h 0.05244 q 0.05994,-0.007 0.0974,-0.007 0.03746,-0.007 0.03746,0 0,0.007 0.04495,0.03 0.05244,0.0225 0.119872,0.045 0.06743,0.03 0.127365,0.0599 0.05994,0.0225 0.07492,0.0375 0.02248,0.007 0.04495,0.0225 0.02248,0.015 0.03746,0.015 0.02248,0 0.05994,0.03 0.03746,0.03 0.07492,0.0749 0.149841,0.14984 0.457014,0.19479 0.314666,0.045 0.524443,0.045 0.247238,0 0.501967,-0.0375 0.539427,-0.0749 1.056378,-0.31467 0.40457,-0.1873 0.651807,-0.1873 0.202285,0 0.307174,0.11238 0.04495,0.045 0.07492,0.0749 0.03746,0.0225 0.04495,0.0225 0.0075,0 0.03746,0.0525 0.03746,0.045 0.07492,0.11238 0.03746,0.0749 0.06743,0.12736 0.02997,0.045 0.03746,0.045 0.01498,0 0.01498,0.015 0,0.0225 -0.0075,0.0524 v 0.03 q 0,0.015 0.0075,0.015 0.0075,0 0.02248,-0.007 l 0.01498,-0.007 q 0.0075,0 0.0075,0.007 0,0.007 -0.0075,0.03 v 0.0375 q 0,0.0225 0.01498,0.03 0.01498,0.015 0.02248,0.0674 0.0075,0.045 0.0075,0.0824 0,0.0375 -0.0075,0.0824 -0.0075,0.0824 -0.02997,0.16483 -0.04495,0.13485 -0.232253,0.31466 -0.179809,0.17232 -0.382094,0.2847 -0.644316,0.31466 -1.146282,0.31466 -0.307174,0 -0.711744,-0.0674 -0.404571,-0.0749 -0.6593,-0.16483 -0.04495,-0.0225 -0.0899,-0.03 -0.03746,-0.007 -0.04495,-0.007 0,0.015 0.0075,0.14984 0.0075,0.13486 0.02248,0.32965 0.02248,0.31467 0.02997,1.33359 0.0075,1.01142 0,2.04532 0,1.02641 -0.01498,1.36355 l -0.02248,0.33715 -0.0974,0.045 q -0.04495,0.0225 -0.08241,0.045 -0.02997,0.0225 -0.03746,0.0375 -0.0075,0.015 -0.02248,0.015 -0.01498,0 -0.03746,-0.015 -0.02248,-0.015 -0.06743,-0.015 -0.02997,0 -0.07492,0.007 -0.04495,0.007 -0.06743,0.007 -0.02248,0 -0.02248,-0.007 z"
           id="path4134" /><path
           d="m 77.497469,125.89281 h 0.0075 q 0.01498,0 0.01498,0.03 0,0.0899 -0.112381,0.43454 -0.172317,0.53193 -0.516951,0.71174 -0.194793,0.0899 -0.457014,0.0974 h -0.05244 q -0.239746,0 -0.449523,-0.0674 -0.194793,-0.0599 -0.29219,-0.10489 -0.0974,-0.0524 -0.239745,-0.16482 -0.0974,-0.0674 -0.157333,-0.14985 -0.05994,-0.0824 -0.134856,-0.22476 -0.05244,-0.10488 -0.08991,-0.1873 -0.02997,-0.0899 -0.02997,-0.11238 0,-0.007 -0.0075,-0.007 -0.04495,0 -0.374602,0.32965 -0.284698,0.29219 -0.486983,0.42705 -0.194793,0.12736 -0.44203,0.19479 -0.179809,0.045 -0.382094,0.045 -0.25473,0 -0.674284,-0.10489 -0.419554,-0.10489 -0.861585,-0.41955 -0.839108,-0.60686 -1.003933,-2.65218 -0.02997,-0.32965 -0.02997,-0.79416 0,-0.1873 0.0075,-0.6593 0.01498,-0.472 0.06743,-0.86908 0.05244,-0.41206 0.11238,-0.75669 0.05994,-0.34464 0.08241,-0.44203 0.02997,-0.0824 0.06743,-0.14984 0.03746,-0.0749 0.07492,-0.11988 0.02248,-0.0225 0.03746,-0.0225 0.0075,0 0.01498,0.007 l 0.0075,0.007 q 0.02248,0 0.03746,-0.0974 0.0075,-0.0749 0.02997,-0.11238 0.02997,-0.0375 0.08241,-0.0674 0.03746,-0.015 0.06743,-0.03 l 0.02997,-0.007 0.01498,0.007 h 0.01498 q 0.0075,0 0.02997,0 0.02997,-0.007 0.06743,-0.0225 0.06743,-0.03 0.08991,-0.03 0.02248,0 0.02997,0.03 0.01498,0.0375 0.05994,0.0375 0.01498,0 0.03746,-0.007 0.02248,-0.007 0.03746,-0.007 0.04495,0 0.07492,0.03 0.02248,0.0225 0.0899,0.045 0.06743,0.0225 0.157333,0.045 0.516951,0.11987 1.3186,0.11987 0.05244,0 0.509458,0 0.457015,-0.007 1.056378,-0.14235 0.32965,-0.0824 0.531935,-0.0824 0.187301,0 0.269714,0.0674 0.06743,0.045 0.06743,0.0524 v 0.007 q -0.01498,0 -0.04495,-0.015 -0.05245,-0.015 -0.05994,-0.015 0,0.015 0.02997,0.0449 0.02248,0.015 0.05994,0.045 0.03746,0.0225 0.06743,0.03 0.06743,0.03 0.08241,0.0599 v 0.015 q 0,0.0225 -0.03746,0.0225 -0.0075,0 -0.0075,0.007 v 0.007 q 0.0075,0.015 0.03746,0.03 0.02997,0.0225 0.06743,0.03 h 0.05244 q 0.01498,-0.007 0.02248,-0.007 0.01498,0 0.01498,0.015 0,0.007 -0.0075,0.0225 v 0.0225 q 0,0.007 0,0.015 0,0.007 0.01498,0.007 0.01498,0 0.02248,0.015 0.0075,0.015 0.0075,0.0375 0,0.015 0.0075,0.03 0.01498,0.015 0.03746,0.015 0.02248,0 0.02997,0.008 0.01498,0.007 0.01498,0.0225 0,0.015 0.01498,0.0375 0.02248,0.0225 0.04495,0.0525 0.02248,0.0225 0.04495,0.0674 0.02997,0.045 0.05244,0.0899 0.05994,0.11238 0.104889,3.53624 0.01498,0.95898 0.02248,1.34857 0.01498,0.3821 0.04495,0.48698 0.0075,0.03 0.01498,0.0375 0,0.007 0.0075,0.007 0.01498,0 0.03746,-0.015 0.02997,-0.0225 0.0974,-0.0749 0.05994,-0.045 0.104888,-0.0674 0.03746,-0.0225 0.05245,-0.0225 h 0.01498 q 0.0075,0 0.01498,-0.007 0.01498,-0.007 0.02248,-0.0225 0.0075,-0.0225 0.02248,-0.03 l 0.0075,-0.007 0.01498,0.007 h 0.01498 q 0.0075,0 0.0075,0 0.0075,0 0.0075,-0.015 0,-0.015 0.01498,-0.0225 0.01498,-0.007 0.02997,-0.007 0.01498,0 0.03746,-0.015 0.02997,-0.015 0.04495,-0.03 0.01498,-0.0225 0.04495,-0.0375 0.02997,-0.015 0.05245,-0.015 0.02248,0 0.03746,-0.007 l 0.0075,-0.007 -0.0075,-0.015 v -0.007 q 0,-0.007 0.0075,-0.015 0.01498,-0.007 0.03746,-0.007 0.03746,0 0.04495,0.015 0.0075,0.007 0.0075,0.0225 0,0.007 -0.0075,0.03 -0.0075,0.03 -0.0075,0.045 0.0075,0 0.02248,-0.0225 0.02248,-0.0225 0.02997,-0.0225 0.0075,0 0.0075,0.015 0,0.015 -0.01498,0.0375 -0.01498,0.0225 -0.03746,0.03 -0.03746,0.0225 -0.03746,0.03 0,0.008 0.02997,0.008 0.02248,0 0.02248,0.007 0,0.007 -0.01498,0.015 -0.01498,0.015 -0.01498,0.0375 0,0.0225 0.0075,0.045 0.01498,0.045 0.02248,0.045 0.0075,0 0.0075,-0.0525 0,-0.0225 0.0075,-0.045 0.01498,-0.03 0.02997,-0.0375 z m -2.891928,-0.89155 0.187301,-0.14984 -0.02248,-0.12737 q -0.01498,-0.0599 -0.02997,-0.2772 -0.01498,-0.22476 -0.02997,-0.50197 -0.02248,-0.41955 -0.02248,-0.87657 0,-0.68927 0.05245,-1.45345 0.01498,-0.18731 0.02248,-0.31467 0.0075,-0.0674 0.0075,-0.0974 0,-0.0375 -0.0075,-0.0375 0,-0.007 -0.02997,-0.007 -0.02248,0 -0.08991,0.007 -0.06743,0.007 -0.194793,0.015 -0.352126,0.0375 -0.749204,0.0375 -0.06743,0 -0.337142,0 -0.269714,0 -0.464507,-0.045 -0.08241,-0.0225 -0.157332,-0.0375 -0.07492,-0.015 -0.104889,-0.015 h -0.06743 l 0.01498,1.25866 q 0.01498,0.95898 0.05244,1.52838 0.03746,0.56939 0.127365,1.08635 0.05994,0.32215 0.11238,0.59187 0.05994,0.26222 0.0974,0.35961 0.02997,0.0749 0.05994,0.0824 h 0.01498 q 0.03746,0 0.127365,-0.0375 0.0974,-0.045 0.359618,-0.21727 0.262221,-0.17232 0.561903,-0.3821 0.299682,-0.21727 0.509459,-0.38958 z"
           id="path4136" /><path
           d="m 80.552307,130.85254 q -0.224761,-0.0599 -0.412062,-0.14984 -0.179809,-0.0824 -0.374602,-0.23225 -0.164825,-0.11987 -0.322158,-0.29219 -0.14984,-0.16483 -0.232253,-0.31467 -0.01498,-0.03 -0.03746,-0.10489 -0.02248,-0.0674 -0.03746,-0.14234 -0.02248,-0.0824 -0.02248,-0.11988 0,-0.0375 0,-0.0524 v -0.0375 q 0.0075,-0.03 0.03746,-0.0749 0.02248,-0.0375 0.04495,-0.0599 0.02248,-0.015 0.03746,-0.015 h 0.04495 q 0.01498,0 0.02248,-0.015 0.01498,-0.0225 0.05244,-0.0225 0.07492,0 0.224761,0.10489 0.209777,0.14984 0.412062,0.41206 l 0.08241,0.10489 0.172317,-0.0899 q 0.591871,-0.25473 1.003933,-1.95542 0.05245,-0.20978 0.0974,-0.38209 0.05244,-0.16483 0.07492,-0.21727 0.01498,-0.0525 0.02997,-0.13486 0.02248,-0.0824 0.02997,-0.15733 l 0.02248,-0.1873 -0.202285,-0.0524 q -1.02641,-0.29968 -1.610789,-1.14628 -0.494475,-0.79416 -0.861585,-2.00787 -0.359618,-1.2212 -0.449523,-2.39745 -0.01498,-0.26222 -0.01498,-0.45702 0,-0.1873 0.01498,-0.30717 0.03746,-0.23975 0.172317,-0.29968 0.05994,-0.03 0.164825,-0.0375 0.112381,-0.007 0.179809,-0.007 l 0.127365,0.007 q 0.127365,0.015 0.149841,0.045 0.0075,0.015 0.03746,0.03 0.03746,0.015 0.08991,0.0225 0.11238,0.015 0.179809,0.11988 0.02997,0.0375 0.04495,0.045 l 0.01498,0.015 q 0.0075,0 0.0075,-0.007 0,-0.0375 0.01498,-0.0375 0.03746,0 0.142349,0.14235 0.04495,0.0599 0.08241,0.0974 0.04495,0.0375 0.05994,0.0375 0.01498,0 0.02997,0.0225 0.01498,0.015 0.01498,0.0375 0,0.03 0.0075,0.0524 0.0075,0.0225 0.01498,0.03 0.01498,0.007 0.02997,0.0524 0.01498,0.0375 0.02248,0.0974 0.40457,3.0118 1.198727,4.53268 0.134857,0.24724 0.262221,0.41206 0.134857,0.15734 0.194793,0.15734 h 0.0075 q 0.0075,-0.015 0.01498,-0.0974 0.0075,-0.0899 0.0075,-0.21727 0,-0.40457 0.194793,-2.04533 0.119872,-1.04888 0.157332,-2.22513 0.01498,-0.472 0.02997,-0.71924 0.01498,-0.25473 0.02997,-0.36711 0.02248,-0.11987 0.05994,-0.1873 0.07492,-0.14235 0.112381,-0.14235 0.02997,0 0.03746,0.0599 0,0.0449 0.0075,0.0449 l 0.0075,-0.03 q 0.0075,-0.0225 0.02248,-0.0375 0.01498,-0.015 0.03746,-0.015 0.01498,0 0.02997,-0.007 0.01498,-0.008 0.01498,-0.0225 0,-0.015 0.0075,-0.0225 0.0075,-0.007 0.02248,-0.007 0.01498,0 0.01498,0.007 0.0075,0 0.0075,0.007 l -0.0075,0.015 v 0.0225 q 0.0075,0.007 0.02997,0.015 h 0.02997 q 0.02248,-0.007 0.02248,-0.03 l 0.01498,-0.0375 q 0.0075,0 0.0075,0.03 0,0.0375 0.07492,0.0674 0.08241,0.03 0.277205,0.0674 0.02997,0.007 0.05244,0.03 0.02997,0.015 0.02997,0.03 0,0.015 0.03746,0.0599 0.04495,0.045 0.104889,0.0974 0.05244,0.0524 0.0899,0.0974 0.04495,0.045 0.04495,0.0599 0,0.0225 0.0075,0.0375 0.0075,0.007 0.01498,0.007 h 0.04495 q 0.0899,0 0.0899,0.0599 0,0.0225 0.01498,0.0524 0.01498,0.03 0.03746,0.0525 0.08991,0.045 0.119873,0.38209 0.03746,0.32965 0.03746,1.10882 0,1.28863 -0.134856,2.15022 -0.04495,0.34463 -0.07492,0.53942 -0.02997,0.1948 -0.04495,0.32965 -0.01498,0.12737 -0.02997,0.27721 -0.01498,0.14235 -0.02248,0.20978 0,0.0599 0,0.0824 0,0.0375 0.0075,0.0375 0.0075,0 0.05994,-0.0375 0.05994,-0.0375 0.134857,-0.0899 0.07492,-0.0525 0.127364,-0.0824 0.05245,-0.0375 0.05994,-0.0375 h 0.01498 q 0.01498,-0.007 0.03746,-0.0225 0.02997,-0.0225 0.05244,-0.0225 0.01498,0 0.01498,0.015 v 0.007 q 0,0.03 -0.03746,0.0974 -0.04495,0.0524 -0.04495,0.0899 0,0.007 0.0075,0.0225 0.01498,0.0225 0.02248,0.0225 0.01498,0 0.02248,-0.015 l 0.0075,-0.015 -0.0075,-0.015 q -0.0075,-0.007 -0.02248,-0.015 l -0.0075,-0.007 q 0,-0.007 0.03746,-0.015 0.05244,0 0.05244,0.015 0.0075,0.015 -0.02248,0.0749 -0.02248,0.0375 -0.02997,0.0599 0,0.0225 0,0.03 v 0.015 q 0.0075,0.007 0.0075,0.015 0,0.007 -0.02248,0.007 -0.01498,0 -0.02248,0.007 0,0 0,0.007 v 0.015 l 0.0075,0.008 -0.0075,0.015 q -0.0075,0.015 -0.02997,0.0225 -0.02248,0.007 -0.03746,0.0225 -0.0075,0.015 -0.0075,0.03 0,0.0225 0.0075,0.0225 0.0075,0 0.02248,-0.03 0.01498,-0.0225 0.02248,-0.0225 0.0075,0 0.0075,0.015 0,0.015 -0.01498,0.045 -0.01498,0.03 -0.04495,0.0599 -0.02248,0.03 -0.04495,0.0749 -0.02248,0.0375 -0.02997,0.0674 -0.01498,0.0375 -0.0974,0.12737 -0.08241,0.0899 -0.172317,0.17232 -0.08991,0.0824 -0.112381,0.0824 -0.01498,0 -0.03746,0.0824 -0.01498,0.0824 -0.02997,0.20229 -0.112381,0.89155 -0.299682,1.61828 -0.119872,0.49447 -0.217269,0.77168 -0.08991,0.2772 -0.232253,0.5619 -0.419555,0.83911 -1.153775,1.02641 -0.209777,0.0599 -0.359618,0.0599 -0.142348,0 -0.352126,-0.0524 z m 3.139166,-5.24443 q 0,-0.007 -0.0075,-0.015 -0.0075,-0.007 -0.02248,-0.015 -0.01499,-0.007 -0.02248,0 -0.0075,0 -0.0075,0.015 0,0.007 0.0075,0.0225 0.0075,0.007 0.02248,0.007 0.0075,0 0.01498,0 0.01498,-0.007 0.01498,-0.015 z m -1.153775,-5.58157 -0.0075,-0.015 q -0.0075,0 -0.01498,0.03 0,0.0225 0.0075,0.0375 l 0.0075,0.007 h 0.0075 q 0.0075,-0.015 0.0075,-0.03 0,-0.015 -0.0075,-0.03 z m 1.326092,5.52913 q 0.0075,-0.0225 0.02248,-0.03 l 0.0075,-0.015 0.01498,0.015 -0.0075,0.015 q -0.0075,0.015 -0.02248,0.03 l -0.02248,0.0225 q -0.0075,0 -0.0075,-0.007 z"
           id="path4138" /><path
           d="m 87.577926,127.27884 q -0.06743,-0.0225 -0.119872,-0.045 -0.05245,-0.0225 -0.06743,-0.0375 0,-0.008 -0.02997,-0.0225 -0.02248,-0.007 -0.04495,-0.015 -0.05244,-0.0225 -0.142349,-0.11239 -0.08241,-0.0824 -0.164825,-0.19479 -0.08241,-0.11238 -0.127365,-0.20228 -0.02248,-0.0599 -0.03746,-0.13486 -0.01498,-0.0824 -0.01498,-0.21727 0,-0.13486 0,-0.26971 V 125.713 q 0,-0.33714 0.0075,-0.71174 0.01498,-0.3746 0.03746,-0.61435 0.03746,-0.53193 0.03746,-1.04889 0,-0.39707 -0.02248,-0.78666 -0.03746,-0.85409 -0.06743,-1.1313 0,-0.045 -0.0075,-0.0824 0,-0.045 -0.0075,-0.0524 -0.02997,-0.0375 -0.501967,-0.0375 -0.464506,0 -0.69676,-0.045 -0.232253,-0.0524 -0.36711,-0.17981 -0.02997,-0.0225 -0.05244,-0.045 -0.02248,-0.03 -0.02248,-0.045 0,-0.015 -0.01498,-0.03 -0.01498,-0.0225 -0.04495,-0.0375 -0.02248,-0.015 -0.04495,-0.0375 -0.02997,-0.03 -0.04495,-0.0599 -0.01498,-0.0375 -0.01498,-0.045 v -0.007 q 0.0075,0 0.01498,0.007 0.02248,0.007 0.02997,0.007 v -0.007 q 0,-0.015 -0.01498,-0.045 -0.02248,-0.03 -0.05994,-0.0674 -0.05994,-0.0674 -0.07492,-0.11238 -0.01498,-0.045 -0.01498,-0.0674 0,-0.0375 0.02248,-0.0524 0.01498,-0.015 0.02997,-0.03 0.0075,-0.0225 0.01498,-0.0375 0,-0.0225 0,-0.03 l -0.0075,-0.015 -0.0075,-0.007 -0.01498,0.007 h -0.0075 q -0.0075,0 -0.01498,-0.0375 v -0.12737 q 0,-0.0674 0.01498,-0.14235 0.0075,-0.0749 0.02997,-0.11987 0.04495,-0.11238 0.119872,-0.13486 h 0.02997 q 0.05994,0 0.187301,0.015 0.179809,0.015 0.412062,0.045 0.232253,0.03 0.457014,0.0599 0.224762,0.0225 0.32965,0.03 l 0.247238,0.015 -0.02248,-0.21727 q -0.07492,-0.77168 -0.299681,-2.12774 -0.0974,-0.5619 -0.127365,-0.80914 -0.02248,-0.25473 -0.02248,-0.38209 0,-0.0749 0.0075,-0.12737 0.02248,-0.14984 0.0974,-0.23225 0.02248,-0.0375 0.03746,-0.0375 0.01498,0 0.02248,0 0.01498,0 0.04495,0.015 0.02248,0.007 0.03746,0.007 h 0.01498 q 0.01499,0 0.02248,-0.03 0.0075,-0.0225 0.02997,-0.03 0.02248,-0.015 0.07492,-0.015 0.05244,-0.007 0.157333,-0.007 0.149841,0 0.209777,0.015 0.05994,0.007 0.08241,0.03 0.02997,0.03 0.05994,0.0524 0.03746,0.0225 0.05244,0.0225 0.01498,0 0.02248,0 0.01498,0 0.01498,-0.015 0,-0.007 0.01498,-0.007 h 0.01498 q 0.02248,0.007 0.05994,0.0225 0.04495,0.0225 0.06743,0.045 0.02997,0.015 0.02997,0.03 0,0.007 0.02248,0.03 0.02997,0.0225 0.07492,0.0524 0.04495,0.0225 0.07492,0.0524 0.03746,0.0225 0.05244,0.045 0.0075,0.015 0.02997,0.03 0.02997,0.007 0.05244,0.007 0.02997,0 0.05244,0.015 0.02248,0.015 0.02997,0.0375 0.0075,0.015 0.02248,0.015 l 0.0075,0.007 h 0.02248 q 0.01498,0 0.02248,0.015 l 0.0075,0.03 -0.0075,0.045 q 0,0.007 0.0075,0.007 0.0075,0 0.01498,0 h 0.02248 q 0.02248,0 0.06743,0.0225 0.04495,0.0375 0.0899,0.0824 0.04495,0.0375 0.04495,0.0674 0,0.007 0.0075,0.0225 0.0075,0.008 0.02248,0.008 0.0075,0 0.03746,0.045 0.03746,0.045 0.06743,0.11238 0.08991,0.15733 0.112381,0.49447 0.02248,0.32965 0.02248,0.68178 0,0.35213 -0.01498,0.83911 l -0.01498,1.07136 h 0.134856 q 0.32965,0.007 1.138791,0.0599 0.224761,0.015 0.374602,0.015 0.149841,0 0.224761,0 h 0.127365 q 0.104888,0 0.104888,-0.007 0,-0.007 -0.0075,-0.007 v -0.008 q 0,-0.007 0.0075,-0.015 0.01498,-0.015 0.04495,-0.0225 0.02248,-0.007 0.04495,-0.007 0.05244,0 0.0899,0.03 0.02248,0.0225 0.03746,0.0225 v -0.008 q 0,-0.015 -0.0075,-0.0375 -0.01498,-0.0375 -0.01498,-0.045 0.0075,0 0.03746,0.0375 0.02248,0.03 0.02248,0.0525 v 0.007 q 0,0.0225 -0.05245,0.0599 -0.02997,0.0225 -0.127364,0.0749 -0.0974,0.045 -0.194793,0.0899 -0.0974,0.045 -0.127365,0.0524 -0.02248,0 -0.142349,0.0375 -0.02248,0.008 -0.02248,0.0225 0,0.007 0,0.015 0,0.015 0.0075,0.0225 0.0075,0.0225 0.03746,0.0225 0.01498,0 0.01498,-0.015 0,-0.007 -0.0075,-0.0225 -0.0075,-0.007 -0.0075,-0.015 0,-0.007 0.01498,-0.007 0.01498,0 0.04495,0.007 0.02997,0.015 0.04495,0.015 0.0075,0 0.0075,-0.007 0,-0.007 -0.0075,-0.0225 -0.0075,-0.015 -0.0075,-0.0225 0,-0.007 0.0075,-0.007 0.0075,0 0.02248,0.007 h 0.04495 q 0.01498,0 0.01498,-0.015 0.0075,-0.0225 0.01498,-0.0225 0.01498,0 0.02248,0.0225 0,0.0225 -0.127365,0.0824 -0.119873,0.0599 -0.299682,0.12736 -0.172317,0.0674 -0.314666,0.10489 -0.05244,0.015 -0.127364,0.045 -0.07492,0.03 -0.134857,0.0599 -0.08241,0.045 -0.262221,0.11238 -0.172317,0.0674 -0.352126,0.12737 -0.179809,0.0599 -0.277206,0.0749 l -0.0974,0.0225 0.02248,0.91403 q 0.0075,0.40457 0.02248,0.91403 0.02248,0.50946 0.03746,0.89905 0.01498,0.38958 0.02248,0.88406 0.01498,0.48698 0.01498,0.85409 v 0.59936 q 0.0075,0.24724 0.01498,0.26223 0.0075,0 0.07492,-0.0674 0.07492,-0.0674 0.172317,-0.16483 0.0974,-0.0974 0.179809,-0.1873 0.08241,-0.0974 0.119872,-0.14984 0.02248,-0.03 0.03746,-0.0375 0.02248,-0.015 0.03746,-0.015 h 0.01498 l 0.01498,0.007 q 0.0075,0 0.0075,-0.007 v -0.008 q -0.0075,-0.015 -0.0075,-0.03 v -0.007 q 0.0075,-0.007 0.01498,-0.007 h 0.01498 q 0.02248,0 0.03746,0.0225 0.01498,0.015 0.02248,0.0899 0.0075,0.0749 0.0075,0.14235 0.0075,0.0674 0.0075,0.10489 0,0.0375 -0.0075,0.0674 -0.0075,0.0599 -0.02248,0.0599 l -0.0075,-0.007 -0.0075,0.007 q -0.01498,0.015 -0.02248,0.0375 -0.0075,0.015 -0.0075,0.0225 0,0.007 0.0075,0.007 l 0.01498,-0.007 h 0.0075 q 0.0075,0 0.01498,0.007 0.0075,0.015 0.0075,0.045 0,0.045 -0.02248,0.045 -0.0075,0 -0.01498,-0.008 l -0.01498,-0.007 v 0.007 l 0.0075,0.015 q 0.0075,0.007 0.0075,0.0375 0,0.0225 -0.0075,0.0599 -0.01498,0.0749 -0.03746,0.16482 -0.01498,0.0824 -0.04495,0.14984 -0.02248,0.0599 -0.03746,0.0599 -0.01498,0 -0.01498,0.007 v 0.007 q 0.0075,0.007 0.0075,0.015 0,0.0225 -0.02248,0.0599 -0.03746,0.0599 -0.104888,0.12737 -0.05994,0.0674 -0.119873,0.11987 -0.202285,0.14984 -0.501967,0.15733 -0.06743,0.007 -0.11238,0.015 -0.04495,0.015 -0.04495,0.0225 0,0.007 -0.0075,0.007 h -0.0075 q -0.01498,-0.007 -0.02997,-0.03 -0.02997,-0.045 -0.04495,-0.045 -0.0075,0 -0.0075,0.0375 0,0.0225 -0.01498,0.0375 -0.01498,0.015 -0.02997,0.015 -0.01498,0 -0.01498,-0.03 0,-0.007 -0.02248,-0.0225 -0.01498,-0.015 -0.03746,-0.015 -0.02997,-0.007 -0.04495,-0.007 -0.02248,0 -0.02248,0.015 0,0.03 -0.05244,0.03 h -0.02248 q -0.07492,0 -0.202285,-0.045 z m 2.644691,-7.2523 0.0075,-0.015 q 0,-0.015 -0.0075,-0.015 -0.02248,0 -0.08991,0.03 -0.04495,0.015 -0.04495,0.0225 0,0.007 0.01498,0.007 h 0.02997 q 0.02997,0 0.05245,-0.007 0.02997,-0.007 0.03746,-0.0225 z m 0.36711,0 v -0.015 q 0,-0.015 0.01498,-0.015 0.01498,0 0.02248,-0.007 0.01498,-0.007 0.01498,-0.0225 0,-0.015 -0.01498,-0.0225 -0.01498,-0.007 -0.02997,-0.007 -0.02248,0 -0.02997,0.015 -0.0075,0.015 -0.0075,0.0375 0,0.007 0.0075,0.007 0,0.03 0,0.045 0.0075,0.015 0.0075,0.0225 0.0075,0 0.01498,0 h 0.0075 q 0.0075,0 0,-0.007 0,-0.015 -0.0075,-0.03 z m -0.239745,-0.015 q -0.0075,-0.007 -0.02248,-0.007 -0.01498,0 -0.03746,0.007 l -0.0075,0.007 q 0,0.007 0.02997,0.007 0.02248,0 0.02997,-0.007 h 0.01498 z m -3.52126,-4.06818 -0.0075,-0.015 q -0.0075,0 -0.01498,0.0375 0,0.0225 0.0075,0.03 l 0.0075,0.008 h 0.0075 q 0.0075,-0.008 0.0075,-0.0225 0,-0.015 -0.0075,-0.0375 z m -0.05994,-0.03 -0.0075,-0.015 q -0.0075,0 -0.01498,0.0375 0,0.0225 0.0075,0.03 v 0.007 h 0.0075 q 0.0075,-0.007 0.0075,-0.0225 0.0075,-0.0225 0,-0.0375 z"
           id="path4140" /><path
           d="m 93.165075,127.34627 q 0.0075,-0.008 0.0075,-0.015 0,-0.007 -0.01498,-0.007 l -0.02997,0.007 q -0.01498,0.007 -0.03746,0.007 h -0.02248 q -0.02997,-0.007 -0.06743,-0.03 -0.04495,-0.03 -0.05244,-0.03 -0.0075,0 -0.0075,0.007 0,0.007 0.0075,0.0225 l 0.0075,0.015 -0.0075,0.007 h -0.04495 q -0.02997,-0.007 -0.104889,-0.03 -0.06743,-0.0225 -0.119873,-0.045 -0.05244,-0.0225 -0.05994,-0.0375 -0.01498,-0.015 -0.05244,-0.03 -0.02997,-0.007 -0.07492,-0.007 -0.03746,-0.007 -0.08241,-0.03 -0.04495,-0.015 -0.07492,-0.0375 -0.14984,-0.14235 -0.217269,-0.22476 -0.05994,-0.0824 -0.08241,-0.16482 -0.03746,-0.1948 -0.08991,-1.46095 -0.04495,-1.27365 -0.08241,-3.07174 -0.0075,-0.30717 -0.0075,-0.59187 0,-0.43454 0.01498,-0.80914 0.02997,-0.62184 0.08241,-0.7492 0.02997,-0.0599 0.06743,-0.10489 0.03746,-0.045 0.05994,-0.0599 0.02997,-0.0225 0.04495,-0.0225 0.0075,0 0.01498,0.015 0.0075,0.007 0.03746,0.007 0.03746,0 0.06743,0 h 0.05244 q 0.05994,-0.007 0.0974,-0.007 0.03746,-0.007 0.03746,0 0,0.007 0.04495,0.03 0.05244,0.0225 0.119873,0.045 0.06743,0.03 0.127365,0.0599 0.05994,0.0225 0.07492,0.0375 0.02248,0.007 0.04495,0.0225 0.02248,0.015 0.03746,0.015 0.02248,0 0.05994,0.03 0.03746,0.03 0.07492,0.0749 0.149841,0.14984 0.457015,0.19479 0.314665,0.045 0.524443,0.045 0.247237,0 0.501966,-0.0375 0.539427,-0.0749 1.056378,-0.31467 0.40457,-0.1873 0.651808,-0.1873 0.202285,0 0.307173,0.11238 0.04495,0.045 0.07492,0.0749 0.03746,0.0225 0.04495,0.0225 0.0075,0 0.03746,0.0525 0.03746,0.045 0.07492,0.11238 0.03746,0.0749 0.06743,0.12736 0.02997,0.045 0.03746,0.045 0.01498,0 0.01498,0.015 0,0.0225 -0.0075,0.0524 v 0.03 q 0,0.015 0.0075,0.015 0.0075,0 0.02248,-0.007 l 0.01498,-0.007 q 0.0075,0 0.0075,0.007 0,0.007 -0.0075,0.03 v 0.0375 q 0,0.0225 0.01498,0.03 0.01498,0.015 0.02248,0.0674 0.0075,0.045 0.0075,0.0824 0,0.0375 -0.0075,0.0824 -0.0075,0.0824 -0.02997,0.16483 -0.04495,0.13485 -0.232254,0.31466 -0.179809,0.17232 -0.382094,0.2847 -0.644315,0.31466 -1.146282,0.31466 -0.307174,0 -0.711744,-0.0674 -0.40457,-0.0749 -0.6593,-0.16483 -0.04495,-0.0225 -0.0899,-0.03 -0.03746,-0.007 -0.04495,-0.007 0,0.015 0.0075,0.14984 0.0075,0.13486 0.02248,0.32965 0.02248,0.31467 0.02997,1.33359 0.0075,1.01142 0,2.04532 0,1.02641 -0.01498,1.36355 l -0.02248,0.33715 -0.0974,0.045 q -0.04495,0.0225 -0.08241,0.045 -0.02997,0.0225 -0.03746,0.0375 -0.0075,0.015 -0.02248,0.015 -0.01498,0 -0.03746,-0.015 -0.02248,-0.015 -0.06743,-0.015 -0.02997,0 -0.07492,0.007 -0.04495,0.007 -0.06743,0.007 -0.02248,0 -0.02248,-0.007 z"
           id="path4142" /><path
           d="m 105.09798,125.89281 h 0.007 q 0.015,0 0.015,0.03 0,0.0899 -0.11238,0.43454 -0.17232,0.53193 -0.51696,0.71174 -0.19479,0.0899 -0.45701,0.0974 h -0.0524 q -0.23975,0 -0.44953,-0.0674 -0.19479,-0.0599 -0.29219,-0.10489 -0.0974,-0.0524 -0.23974,-0.16482 -0.0974,-0.0674 -0.15733,-0.14985 -0.0599,-0.0824 -0.13486,-0.22476 -0.0525,-0.10488 -0.0899,-0.1873 -0.03,-0.0899 -0.03,-0.11238 0,-0.007 -0.007,-0.007 -0.045,0 -0.3746,0.32965 -0.2847,0.29219 -0.48698,0.42705 -0.19479,0.12736 -0.44203,0.19479 -0.17981,0.045 -0.38209,0.045 -0.25473,0 -0.67429,-0.10489 -0.419553,-0.10489 -0.861583,-0.41955 -0.839109,-0.60686 -1.003934,-2.65218 -0.02997,-0.32965 -0.02997,-0.79416 0,-0.1873 0.0075,-0.6593 0.01498,-0.472 0.06743,-0.86908 0.05245,-0.41206 0.112381,-0.75669 0.05994,-0.34464 0.08241,-0.44203 0.02997,-0.0824 0.06743,-0.14984 0.03746,-0.0749 0.07492,-0.11988 0.02248,-0.0225 0.03746,-0.0225 0.0075,0 0.01498,0.007 l 0.0075,0.007 q 0.02248,0 0.03746,-0.0974 0.0075,-0.0749 0.02997,-0.11238 0.02997,-0.0375 0.08241,-0.0674 0.03746,-0.015 0.06743,-0.03 l 0.02997,-0.007 0.01498,0.007 h 0.01498 q 0.0075,0 0.02997,0 0.02997,-0.007 0.06743,-0.0225 0.06743,-0.03 0.0899,-0.03 0.02248,0 0.02997,0.03 0.01498,0.0375 0.05994,0.0375 0.01498,0 0.03746,-0.007 0.02248,-0.007 0.03746,-0.007 0.04495,0 0.07492,0.03 0.02248,0.0225 0.08991,0.045 0.06743,0.0225 0.157333,0.045 0.516943,0.11987 1.318593,0.11987 0.0524,0 0.50946,0 0.45702,-0.007 1.05638,-0.14235 0.32965,-0.0824 0.53193,-0.0824 0.1873,0 0.26972,0.0674 0.0674,0.045 0.0674,0.0524 v 0.007 q -0.015,0 -0.045,-0.015 -0.0524,-0.015 -0.0599,-0.015 0,0.015 0.03,0.0449 0.0225,0.015 0.0599,0.045 0.0375,0.0225 0.0674,0.03 0.0674,0.03 0.0824,0.0599 v 0.015 q 0,0.0225 -0.0375,0.0225 -0.007,0 -0.007,0.007 v 0.007 q 0.007,0.015 0.0375,0.03 0.03,0.0225 0.0674,0.03 h 0.0524 q 0.015,-0.007 0.0225,-0.007 0.015,0 0.015,0.015 0,0.007 -0.007,0.0225 v 0.0225 q 0,0.007 0,0.015 0,0.007 0.015,0.007 0.015,0 0.0225,0.015 0.007,0.015 0.007,0.0375 0,0.015 0.007,0.03 0.015,0.015 0.0375,0.015 0.0225,0 0.03,0.008 0.015,0.007 0.015,0.0225 0,0.015 0.015,0.0375 0.0225,0.0225 0.045,0.0525 0.0225,0.0225 0.045,0.0674 0.03,0.045 0.0524,0.0899 0.0599,0.11238 0.10489,3.53624 0.015,0.95898 0.0225,1.34857 0.015,0.3821 0.045,0.48698 0.007,0.03 0.015,0.0375 0,0.007 0.007,0.007 0.015,0 0.0375,-0.015 0.03,-0.0225 0.0974,-0.0749 0.0599,-0.045 0.10489,-0.0674 0.0375,-0.0225 0.0524,-0.0225 h 0.015 q 0.007,0 0.015,-0.007 0.015,-0.007 0.0225,-0.0225 0.007,-0.0225 0.0225,-0.03 l 0.007,-0.007 0.015,0.007 h 0.015 q 0.008,0 0.008,0 0.007,0 0.007,-0.015 0,-0.015 0.015,-0.0225 0.015,-0.007 0.03,-0.007 0.015,0 0.0375,-0.015 0.03,-0.015 0.045,-0.03 0.015,-0.0225 0.045,-0.0375 0.03,-0.015 0.0524,-0.015 0.0225,0 0.0375,-0.007 l 0.007,-0.007 -0.007,-0.015 v -0.007 q 0,-0.007 0.007,-0.015 0.015,-0.007 0.0375,-0.007 0.0375,0 0.045,0.015 0.008,0.007 0.008,0.0225 0,0.007 -0.008,0.03 -0.007,0.03 -0.007,0.045 0.007,0 0.0225,-0.0225 0.0225,-0.0225 0.03,-0.0225 0.007,0 0.007,0.015 0,0.015 -0.015,0.0375 -0.015,0.0225 -0.0375,0.03 -0.0375,0.0225 -0.0375,0.03 0,0.008 0.03,0.008 0.0225,0 0.0225,0.007 0,0.007 -0.015,0.015 -0.015,0.015 -0.015,0.0375 0,0.0225 0.007,0.045 0.015,0.045 0.0225,0.045 0.007,0 0.007,-0.0525 0,-0.0225 0.007,-0.045 0.015,-0.03 0.03,-0.0375 z m -2.89193,-0.89155 0.1873,-0.14984 -0.0225,-0.12737 q -0.015,-0.0599 -0.03,-0.2772 -0.015,-0.22476 -0.03,-0.50197 -0.0225,-0.41955 -0.0225,-0.87657 0,-0.68927 0.0524,-1.45345 0.015,-0.18731 0.0225,-0.31467 0.007,-0.0674 0.007,-0.0974 0,-0.0375 -0.007,-0.0375 0,-0.007 -0.03,-0.007 -0.0225,0 -0.0899,0.007 -0.0674,0.007 -0.19479,0.015 -0.35213,0.0375 -0.7492,0.0375 -0.0674,0 -0.33715,0 -0.26971,0 -0.4645,-0.045 -0.0824,-0.0225 -0.15734,-0.0375 -0.0749,-0.015 -0.10488,-0.015 h -0.0674 l 0.015,1.25866 q 0.015,0.95898 0.0525,1.52838 0.0375,0.56939 0.12736,1.08635 0.0599,0.32215 0.11238,0.59187 0.0599,0.26222 0.0974,0.35961 0.03,0.0749 0.0599,0.0824 h 0.015 q 0.0375,0 0.12736,-0.0375 0.0974,-0.045 0.35962,-0.21727 0.26222,-0.17232 0.5619,-0.3821 0.29969,-0.21727 0.50946,-0.38958 z"
           id="path4144" /><path
           d="m 112.60309,121.49498 q 0.23226,0.68927 0.29219,1.65574 0.015,0.26972 0.015,0.53194 0,0.66679 -0.0974,1.25866 -0.0824,0.46451 -0.30717,0.98895 -0.21727,0.51695 -0.42705,0.77168 -0.17981,0.1873 -0.472,0.33714 -0.2847,0.14984 -0.61435,0.22476 -0.15733,0.03 -0.40457,0.03 h -0.11987 q -0.16482,0 -0.26971,-0.015 -0.16483,-0.0375 -0.40457,-0.11987 -0.23226,-0.0824 -0.39708,-0.16483 -0.10489,-0.0524 -0.32965,-0.1873 -0.21727,-0.14235 -0.43454,-0.2847 -0.20978,-0.14235 -0.2847,-0.20978 l -0.007,-0.007 -0.007,0.015 q -0.007,0.007 -0.015,0.045 0,0.0375 -0.008,0.11987 0,0.0824 -0.007,0.21727 0,0.13486 0,0.32965 0,0.20229 -0.007,0.47949 0,0.27721 0,0.63683 0,0.36711 0,0.83161 0,0.97397 -0.007,1.58082 0,0.60686 -0.007,0.92902 -0.008,0.32215 -0.0225,0.44203 -0.007,0.12736 -0.03,0.13485 -0.015,0.007 -0.0225,0.03 -0.007,0.03 -0.007,0.0599 -0.007,0.0375 -0.015,0.0375 l -0.007,-0.007 q -0.007,-0.015 -0.03,-0.0225 -0.015,0 -0.045,0 -0.0225,0.007 -0.0375,0.0225 l -0.008,0.007 v 0.015 q 0,0.007 -0.0225,0.007 -0.015,0 -0.0524,0 -0.03,-0.007 -0.045,-0.007 -0.045,0 -0.045,0.0375 0,0.045 -0.0599,0.045 h -0.0225 q -0.0749,-0.007 -0.0749,-0.0599 0,-0.0375 -0.03,-0.0375 -0.015,0 -0.0375,0.007 -0.0225,0.007 -0.03,0.007 -0.0225,0 -0.0225,-0.015 0,-0.007 0.008,-0.015 0.007,-0.015 0.007,-0.0225 0,-0.015 -0.015,-0.015 -0.015,0 -0.03,0.015 -0.008,0.0225 -0.008,0.0524 0,0.0225 -0.007,0.0375 -0.007,0.0225 -0.0225,0.0225 -0.007,0 -0.0225,-0.015 -0.007,-0.015 -0.007,-0.03 0,-0.0225 -0.03,-0.045 -0.0225,-0.0225 -0.0599,-0.03 -0.0375,0 -0.0599,0.007 -0.015,0.007 -0.0225,0.007 -0.015,0 -0.015,-0.015 0,-0.008 -0.0225,-0.015 l -0.0225,-0.007 -0.03,0.007 q -0.03,0 -0.0525,-0.007 -0.0225,-0.007 -0.0225,-0.0225 0,-0.03 -0.045,-0.0749 -0.045,-0.0375 -0.0974,-0.0599 -0.03,-0.015 -0.045,-0.015 -0.007,0 -0.015,0.007 -0.007,0.007 -0.015,0.007 -0.0225,0 -0.045,-0.045 -0.015,-0.03 -0.0375,-0.0524 -0.0225,-0.015 -0.0375,-0.015 h -0.007 q -0.0524,0 -0.10489,-0.17232 -0.045,-0.16483 -0.0599,-0.44203 -0.0375,-0.92152 -0.0674,-3.53625 -0.0225,-2.09027 -0.0225,-4.19554 v -1.17625 q 0,-0.65181 0,-1.07136 0.007,-0.41956 0.015,-0.6593 0.007,-0.23975 0.0225,-0.35213 0.0225,-0.11238 0.0524,-0.15733 0.0375,-0.045 0.0974,-0.0824 l 0.007,-0.007 q 0.0599,-0.0375 0.0899,-0.0524 0.0225,-0.007 0.045,-0.007 0.007,0 0.0225,0.007 0.015,0 0.045,0.0375 0.03,0.03 0.0375,0.03 0.007,0 0.007,-0.0375 0,-0.0375 0.015,-0.0375 0.007,0 0.03,0.0225 0.015,0.015 0.045,0.015 h 0.045 q 0.015,-0.007 0.0375,-0.007 0.03,0 0.0749,0.015 0.0524,0.007 0.11238,0.0375 0.0674,0.0225 0.0899,0.045 0.015,0.0225 0.0524,0.0525 0.0375,0.0225 0.0824,0.045 0.0375,0.0225 0.0674,0.0524 0.03,0.0225 0.03,0.03 0,0.015 0.007,0.0225 0.015,0 0.0375,0 0.015,0 0.03,0.015 0.0225,0.008 0.03,0.03 0.007,0.007 0.015,0.007 0.0225,0 0.0899,-0.0749 0.045,-0.045 0.0599,-0.0824 0.0225,-0.0375 0.0225,-0.0524 v -0.008 q 0,-0.007 0,-0.007 0.007,-0.007 0.0225,-0.007 0.015,0 0.0674,-0.0375 0.0524,-0.0375 0.11238,-0.0899 0.0674,-0.0599 0.10489,-0.0824 0.0375,-0.03 0.0824,-0.03 0.0225,-0.008 0.0525,-0.008 0.03,0 0.0674,0.008 0.0749,0.007 0.17231,0.03 0.10489,0.015 0.1873,0.0375 0.23226,0.0525 0.65181,0.0824 0.2847,0.0225 0.50197,0.0225 0.10489,0 0.19479,-0.007 0.12737,-0.007 0.27721,-0.03 0.15733,-0.0225 0.26971,-0.0524 0.16483,-0.0375 0.23975,-0.0375 0.0824,-0.007 0.19479,0.0225 0.42705,0.10489 0.80914,0.53194 0.38209,0.42705 0.59936,1.04139 z m -1.28863,1.67073 q 0.015,-0.20978 0.015,-0.59187 0,-0.37461 -0.0225,-0.74921 -0.015,-0.3746 -0.0375,-0.56939 -0.007,-0.0674 -0.0225,-0.0974 -0.007,-0.03 -0.03,-0.0375 -0.015,-0.007 -0.0599,-0.007 -0.0375,0 -0.11987,0.015 -0.0824,0.015 -0.16483,0.03 -0.41955,0.0974 -1.1313,0.12737 -0.22476,0.007 -0.41206,0.007 -0.43454,0 -0.72673,-0.045 -0.15733,-0.0225 -0.23225,-0.0375 -0.0375,-0.007 -0.0599,-0.007 -0.0225,0 -0.03,0.007 -0.015,0 -0.015,0.008 0,0.007 0.007,0.015 0.008,0.0375 0.015,0.63682 0.007,0.59937 0.007,1.49092 l 0.007,2.09777 0.33714,0.15734 q 0.14984,0.0674 0.27721,0.12736 0.13486,0.0599 0.19479,0.0824 0.11987,0.0375 0.31467,0.0375 0.03,0 0.16482,0 0.13486,0 0.35213,-0.0524 0.50946,-0.11987 0.70425,-0.3821 0.53194,-0.71923 0.66679,-2.26259 z"
           id="path4146" /></g><g
         aria-label="food"
         id="text244"
         style="font-size:15.3437px;line-height:2.05;font-family:'Bankai Demo Version';-inkscape-font-specification:'Bankai Demo Version, Normal';letter-spacing:0.529167px;fill:#e5ae0b;stroke-width:0.264583"><path
           d="m 116.81878,127.26385 q -0.03,-0.015 -0.0674,-0.0225 -0.03,0 -0.0674,0 -0.0225,0.007 -0.0375,0.007 -0.0375,0 -0.0375,-0.03 0,-0.015 -0.015,-0.03 -0.007,-0.015 -0.03,-0.0225 -0.015,-0.007 -0.0225,-0.007 -0.0225,0 -0.0225,0.0375 0,0.0225 -0.007,0.0225 h -0.008 q -0.0225,0 -0.0674,-0.045 -0.0375,-0.03 -0.045,-0.0375 l -0.015,-0.007 v 0.007 q 0.007,0.015 0,0.0225 0,0.015 -0.007,0.015 -0.015,0 -0.03,-0.007 -0.007,-0.007 -0.007,-0.0225 0,-0.007 -0.03,-0.03 -0.0225,-0.015 -0.0674,-0.03 -0.0974,-0.0375 -0.17981,-0.12737 -0.0824,-0.0974 -0.10489,-0.19479 -0.015,-0.0674 -0.03,-0.27721 -0.015,-0.20978 -0.03,-0.68927 -0.015,-0.48698 -0.0375,-1.38602 -0.008,-0.27721 -0.015,-0.51695 -0.007,-0.23975 -0.015,-0.33715 0,-0.0899 -0.007,-0.43453 0,-0.35213 -0.008,-0.78667 v -1.0339 h -0.10488 q -0.20978,0 -0.42705,-0.10489 -0.21727,-0.10489 -0.27721,-0.23974 -0.007,-0.0225 -0.03,-0.0375 -0.015,-0.015 -0.0225,-0.015 -0.015,0 -0.03,-0.015 -0.007,-0.0225 -0.007,-0.045 0,-0.0225 -0.015,-0.045 -0.015,-0.03 -0.045,-0.045 -0.0225,-0.015 -0.045,-0.045 -0.015,-0.0375 -0.015,-0.0674 0,-0.03 -0.007,-0.0524 -0.007,-0.03 -0.015,-0.0375 -0.007,-0.007 -0.015,-0.03 -0.015,-0.03 -0.015,-0.0599 -0.007,-0.03 -0.015,-0.0524 -0.007,-0.0225 -0.0225,-0.03 -0.007,-0.007 -0.015,-0.03 -0.007,-0.03 -0.015,-0.0674 0,-0.03 -0.007,-0.0899 -0.007,-0.0674 -0.015,-0.12737 -0.007,-0.0599 -0.007,-0.11987 0,-0.44203 0.26971,-0.53194 0.045,-0.007 0.11987,-0.007 0.0824,0 0.1948,0.007 0.23974,0.015 0.48698,0.0525 l 0.0974,0.007 v -1.46095 q 0,-1.38602 -0.03,-1.55085 -0.007,-0.03 -0.007,-0.0749 0,-0.045 0.007,-0.10489 0.0225,-0.11238 0.0674,-0.21727 0.045,-0.11238 0.0974,-0.14984 0.045,-0.0375 0.0599,-0.03 0.015,0 0.03,0.0375 l 0.015,0.03 q 0.007,0 0.007,-0.03 0,-0.0375 0.0524,-0.0599 0.0524,-0.0225 0.12736,-0.03 0.015,0 0.03,0.0225 0.0225,0.0225 0.0375,0.0524 0.015,0.045 0.0225,0.045 0.007,0 0.007,-0.0375 0,-0.0375 0.015,-0.0375 0.015,-0.007 0.03,-0.007 0.0225,0 0.0749,0.007 0.045,0.015 0.11238,0.0375 0.0749,0.0225 0.13486,0.045 0.0599,0.0225 0.11238,0.045 0.0524,0.015 0.0674,0.015 0.015,0 0.03,0.007 0.015,0.007 0.015,0.0225 0,0.015 0.007,0.0225 0.015,0.007 0.0375,0.007 0.0225,0 0.0375,0.015 0.0225,0.015 0.03,0.03 0.007,0.0225 0.015,0.0375 0.015,0.015 0.0225,0.015 0.0375,0 0.14235,0.0674 0.10489,0.0599 0.23225,0.15733 0.12737,0.0899 0.23225,0.17981 0.10489,0.0974 0.21727,0.17232 0.11238,0.0674 0.30718,0.15733 0.20228,0.0899 0.55441,0.23226 0.46451,0.20228 0.64431,0.21727 0.17981,0.007 0.22477,0.007 0.26222,0 0.50945,-0.10489 0.0749,-0.0375 0.10489,-0.0375 0.03,0 0.045,0 0.03,0 0.0524,0.007 0.0749,0.03 0.0749,0.0749 v 0.015 q -0.007,0.0599 -0.12736,0.1873 -0.34464,0.3746 -0.77918,0.43453 -0.42704,0.0599 -0.62184,0.0599 -0.48698,0 -1.00393,-0.15733 l -0.1873,-0.0599 v 0.98895 q 0,0.5694 0.007,0.77917 0.007,0.20229 0.03,0.20229 0.015,0 0.0824,0.015 0.0674,0.007 0.15733,0.015 0.27721,0.045 0.71175,0.0749 0.43454,0.0225 0.72673,0.0225 0.35212,0 0.3746,0.0375 0.007,0.008 0.007,0.015 l -0.007,0.007 q 0,0.015 -0.015,0.0225 -0.015,0.007 -0.03,0.0225 -0.007,0.015 -0.007,0.03 0,0.015 -0.03,0.0375 -0.03,0.0225 -0.0674,0.045 -0.045,0.015 -0.12737,0.0599 -0.0749,0.0375 -0.14984,0.0824 -0.0824,0.045 -0.26222,0.12737 -0.17232,0.0749 -0.3746,0.15733 -0.19479,0.0749 -0.34464,0.13486 -0.14234,0.0524 -0.17231,0.0674 -0.03,0.015 -0.11238,0.045 -0.0749,0.03 -0.16483,0.0599 l -0.21727,0.0824 v 2.08278 q 0,0.86159 -0.007,1.47593 -0.007,0.60686 -0.015,0.64432 -0.008,0.0225 -0.015,0.23975 -0.007,0.20977 -0.015,0.51695 0,0.30717 -0.007,0.57688 -0.008,0.26223 -0.0225,0.36711 -0.015,0.13486 -0.045,0.1948 -0.0225,0.0599 -0.0899,0.11238 -0.10488,0.0974 -0.17231,0.11987 -0.0599,0.03 -0.0899,0.03 -0.03,0 -0.03,-0.03 0,-0.03 -0.015,-0.0375 -0.015,-0.007 -0.03,-0.007 -0.007,0 -0.0225,0.007 -0.0225,0.015 -0.0375,0.045 -0.008,0.0225 -0.0225,0.0225 -0.007,0 -0.015,0 -0.0225,0 -0.045,-0.007 -0.03,-0.0225 -0.0524,-0.0225 -0.015,0 -0.0225,0.015 -0.0225,0.03 -0.045,0.03 -0.0225,0 -0.0749,-0.03 z"
           id="path4149" /><path
           d="m 123.79859,127.30881 q -0.045,-0.007 -0.12736,-0.03 -0.0824,-0.015 -0.16482,-0.0375 -0.0824,-0.03 -0.21727,-0.0599 -0.12737,-0.03 -0.24724,-0.0524 -0.76419,-0.14984 -1.49841,-0.76419 -0.80914,-0.72673 -1.12381,-1.85803 -0.13485,-0.51695 -0.13485,-1.04139 0,-0.85409 0.3746,-1.73066 0.29219,-0.64432 0.83911,-1.19124 0.55441,-0.54692 1.11631,-0.74171 0.0974,-0.03 0.1873,-0.03 0.0899,0 0.12737,0 0.0824,0 0.15733,0.007 0.10489,0.015 0.12737,0.045 0.015,0.0225 0.0225,0.0225 0.007,0 0.007,-0.007 0,-0.007 0.007,-0.007 0.007,0 0.015,0.007 0.03,0.015 0.0674,0.0375 0.0375,0.03 0.0674,0.0525 0.0375,0.015 0.0524,0.015 0.007,0 0.03,0.015 0.0225,0.008 0.0375,0.03 0.015,0.0225 0.03,0.03 0.015,0 0.0225,0 h 0.015 q 0.007,-0.007 0.015,-0.007 0.007,0 0.007,0.015 v 0.015 q 0,0.0375 0.0225,0.0749 0.0375,0.045 0.0749,0.045 0.0225,0 0.0524,0.0225 0.03,0.0225 0.045,0.0599 0.0225,0.0375 0.0375,0.0599 0.0225,0.015 0.0375,0.015 h 0.007 q 0.015,0 0.0225,0.007 0.007,0.007 0.007,0.0225 0,0.0225 0,0.0674 0.007,0.0375 0.015,0.0899 0.015,0.045 0.015,0.0974 0,0.0524 -0.008,0.0749 -0.015,0.03 -0.0974,0.11987 -0.0824,0.0824 -0.1948,0.1873 -1.17625,1.00394 -1.5059,2.52482 -0.0599,0.29219 -0.0599,0.73422 v 0.10489 q 0,0.51695 0.0674,0.81663 0.14984,0.57689 0.48698,0.92152 0.17232,0.17981 0.35212,0.27721 0.18731,0.0974 0.44203,0.13486 0.10489,0.015 0.14235,0.015 0.045,0 0.0599,0 0.0375,0 0.0674,-0.007 0.045,-0.015 0.11238,-0.0524 0.26971,-0.12736 0.71923,-0.56939 0.74172,-0.73422 0.99645,-1.94044 0.0599,-0.32965 0.0674,-0.50197 0.015,-0.17231 0.015,-0.2772 0,-0.15734 -0.015,-0.34464 -0.0974,-1.1238 -0.68177,-1.60329 -0.16483,-0.14235 -0.26971,-0.26972 -0.10489,-0.13485 -0.10489,-0.20228 0,-0.0524 0.015,-0.0974 0.0225,-0.0524 0.045,-0.0749 0.0225,-0.03 0.045,-0.03 h 0.045 q 0.007,0 0.007,-0.007 0,-0.0225 0.045,-0.0225 0.0225,0 0.0524,0.007 0.0899,0.015 0.21727,0.0524 0.13485,0.0375 0.24723,0.0899 1.34108,0.70425 1.68571,2.26259 0.0674,0.31467 0.0749,0.44952 0.007,0.12737 0.007,0.18731 0,0.17231 -0.015,0.42704 -0.0225,0.32216 -0.0974,0.67429 -0.0749,0.34463 -0.16482,0.57688 -0.13486,0.31467 -0.36711,0.69676 -0.23225,0.3746 -0.44203,0.61435 -0.21727,0.23225 -0.5694,0.44203 -0.34463,0.20978 -0.64431,0.2847 -0.15733,0.0375 -0.32965,0.0375 -0.16483,0.007 -0.23226,0.007 -0.19479,0 -0.36711,-0.015 z"
           id="path4151" /><path
           d="m 131.5426,127.30881 q -0.045,-0.007 -0.12737,-0.03 -0.0824,-0.015 -0.16482,-0.0375 -0.0824,-0.03 -0.21727,-0.0599 -0.12737,-0.03 -0.24724,-0.0524 -0.76419,-0.14984 -1.49841,-0.76419 -0.80914,-0.72673 -1.1238,-1.85803 -0.13486,-0.51695 -0.13486,-1.04139 0,-0.85409 0.3746,-1.73066 0.29219,-0.64432 0.83911,-1.19124 0.55441,-0.54692 1.11632,-0.74171 0.0974,-0.03 0.1873,-0.03 0.0899,0 0.12736,0 0.0824,0 0.15733,0.007 0.10489,0.015 0.12737,0.045 0.015,0.0225 0.0225,0.0225 0.007,0 0.007,-0.007 0,-0.007 0.007,-0.007 0.007,0 0.015,0.007 0.03,0.015 0.0674,0.0375 0.0375,0.03 0.0674,0.0525 0.0375,0.015 0.0524,0.015 0.007,0 0.03,0.015 0.0225,0.008 0.0375,0.03 0.015,0.0225 0.03,0.03 0.015,0 0.0225,0 h 0.015 q 0.007,-0.007 0.015,-0.007 0.007,0 0.007,0.015 v 0.015 q 0,0.0375 0.0225,0.0749 0.0375,0.045 0.0749,0.045 0.0225,0 0.0525,0.0225 0.03,0.0225 0.045,0.0599 0.0225,0.0375 0.0375,0.0599 0.0225,0.015 0.0375,0.015 h 0.007 q 0.015,0 0.0225,0.007 0.007,0.007 0.007,0.0225 0,0.0225 0,0.0674 0.007,0.0375 0.015,0.0899 0.015,0.045 0.015,0.0974 0,0.0524 -0.007,0.0749 -0.015,0.03 -0.0974,0.11987 -0.0824,0.0824 -0.19479,0.1873 -1.17625,1.00394 -1.5059,2.52482 -0.0599,0.29219 -0.0599,0.73422 v 0.10489 q 0,0.51695 0.0674,0.81663 0.14984,0.57689 0.48698,0.92152 0.17232,0.17981 0.35213,0.27721 0.1873,0.0974 0.44203,0.13486 0.10489,0.015 0.14235,0.015 0.045,0 0.0599,0 0.0375,0 0.0674,-0.007 0.045,-0.015 0.11238,-0.0524 0.26972,-0.12736 0.71924,-0.56939 0.74171,-0.73422 0.99644,-1.94044 0.0599,-0.32965 0.0674,-0.50197 0.015,-0.17231 0.015,-0.2772 0,-0.15734 -0.015,-0.34464 -0.0974,-1.1238 -0.68178,-1.60329 -0.16482,-0.14235 -0.26971,-0.26972 -0.10489,-0.13485 -0.10489,-0.20228 0,-0.0524 0.015,-0.0974 0.0225,-0.0524 0.045,-0.0749 0.0225,-0.03 0.045,-0.03 h 0.045 q 0.007,0 0.007,-0.007 0,-0.0225 0.045,-0.0225 0.0225,0 0.0524,0.007 0.0899,0.015 0.21727,0.0524 0.13486,0.0375 0.24724,0.0899 1.34107,0.70425 1.6857,2.26259 0.0674,0.31467 0.0749,0.44952 0.007,0.12737 0.007,0.18731 0,0.17231 -0.015,0.42704 -0.0225,0.32216 -0.0974,0.67429 -0.0749,0.34463 -0.16483,0.57688 -0.13485,0.31467 -0.36711,0.69676 -0.23225,0.3746 -0.44203,0.61435 -0.21727,0.23225 -0.56939,0.44203 -0.34464,0.20978 -0.64432,0.2847 -0.15733,0.0375 -0.32965,0.0375 -0.16482,0.007 -0.23225,0.007 -0.1948,0 -0.36711,-0.015 z"
           id="path4153" /><path
           d="m 142.17104,116.28052 q 0.0749,0.0375 0.11238,0.0899 0.045,0.0524 0.0599,0.20977 0.015,0.14984 0.007,0.48699 0,0.33714 -0.015,0.9365 -0.007,0.62933 -0.03,1.21371 -0.015,0.57689 -0.0225,0.8466 -0.007,0.26222 -0.015,0.59937 0,0.32965 0,0.57688 0.007,0.51695 0.007,1.37854 0.007,0.42704 0.007,0.86158 0,0.43454 -0.007,1.10883 0,0.66679 -0.007,1.28863 0,0.61434 -0.007,0.6518 -0.007,0.015 -0.015,0.0674 0,0.0525 0,0.11238 0,0.0899 -0.015,0.12737 -0.007,0.0375 -0.045,0.045 -0.0225,0.007 -0.045,0.03 -0.015,0.015 -0.015,0.0375 0,0.03 -0.0225,0.03 -0.007,0 -0.015,-0.007 l -0.015,-0.007 q -0.007,0 -0.007,0.007 0,0.007 0.007,0.0225 0.007,0.007 0.007,0.0225 0,0.007 -0.007,0.0225 -0.007,0.015 -0.03,0.0225 h -0.0225 q -0.015,0 -0.015,-0.015 v -0.007 q 0,-0.015 -0.007,-0.0225 -0.007,-0.015 -0.0225,-0.0225 h -0.015 q -0.015,0 -0.015,0.015 v 0.0225 q 0.007,0.007 0.007,0.015 0,0.0375 -0.0824,0.0674 -0.045,0.015 -0.0824,0.0225 -0.03,0.015 -0.045,0.015 h -0.007 q -0.007,0 -0.0375,0.007 -0.0225,0.007 -0.0599,0.03 -0.0899,0.0375 -0.2847,0.0674 -0.19479,0.0375 -0.34463,0.0375 -0.0524,0 -0.15733,-0.015 -0.0974,-0.015 -0.17981,-0.0375 -0.35962,-0.0974 -0.35962,-0.20978 v -0.015 q 0.007,-0.015 0.007,-0.0225 0,-0.007 -0.007,-0.015 0,-0.007 -0.015,-0.007 h -0.008 q -0.007,0 -0.015,0 -0.007,-0.007 -0.007,-0.0225 0,-0.0375 0.015,-0.16483 0.0225,-0.13485 0.0375,-0.25473 0.0225,-0.12736 0.03,-0.17231 0.007,-0.0225 0.007,-0.03 v -0.007 q -0.015,0 -0.0749,0.045 -0.36711,0.25473 -0.80914,0.45701 -0.43454,0.20229 -0.77168,0.27721 -0.10489,0.015 -0.26971,0.015 -0.0599,0 -0.21727,0 -0.14984,0 -0.30718,-0.03 -0.32215,-0.0674 -0.61434,-0.21727 -0.29219,-0.15734 -0.472,-0.34464 -0.20978,-0.25473 -0.43454,-0.77168 -0.21727,-0.52444 -0.29968,-0.98895 -0.0974,-0.61434 -0.0974,-1.24368 0,-0.8466 0.17232,-1.70818 0.22476,-1.07886 0.89155,-1.68571 0.32965,-0.31467 0.65181,-0.3821 0.0824,-0.0225 0.14984,-0.0225 0.0225,0 0.0674,0 0.0524,0 0.21727,0.0375 0.74171,0.17232 1.5958,0.17232 0.23975,0 0.41956,-0.008 0.17981,-0.007 0.19479,-0.015 0.0375,0 0.0524,-1.89549 0.008,-0.44203 0.015,-0.6518 0.015,-0.21727 0.0524,-0.31467 0.045,-0.10489 0.12737,-0.20978 0.0749,-0.0824 0.16482,-0.14984 0.0824,-0.0524 0.12737,-0.0524 h 0.015 q 0.015,0 0.03,-0.015 0.0225,-0.0225 0.03,-0.0524 0.015,-0.03 0.0375,-0.045 0.0225,-0.015 0.045,-0.015 0.0225,0 0.0599,-0.015 0.045,-0.0225 0.0824,-0.0599 0.045,-0.0375 0.0899,-0.0599 0.0524,-0.0225 0.0899,-0.03 0.0375,-0.007 0.0674,-0.015 0.03,-0.007 0.0375,-0.0225 0.007,-0.007 0.03,-0.015 0.0225,-0.007 0.0524,-0.015 0.0225,0 0.0749,-0.007 0.0524,-0.007 0.0974,-0.015 0.0524,-0.007 0.0749,-0.007 0.015,0 0.03,0.007 0.015,0 0.015,0.0375 0,0.0375 0.007,0.0375 0.007,0 0.015,-0.03 0.03,-0.0524 0.11988,-0.0524 h 0.0225 q 0.0824,0 0.15734,0.0375 z m -1.77562,9.06537 v -2.19517 q 0,-0.88406 -0.007,-1.35606 0,-0.47949 -0.007,-0.6518 -0.007,-0.17981 -0.0225,-0.17981 -0.0225,0 -0.11238,0.0225 -0.0899,0.015 -0.20978,0.0375 -0.34463,0.0749 -0.82412,0.0749 -0.0824,0 -0.41955,0 -0.33715,-0.007 -0.76419,-0.11987 -0.0824,-0.015 -0.16483,-0.03 -0.0824,-0.015 -0.11987,-0.015 -0.045,0 -0.0674,0.007 -0.015,0.007 -0.03,0.0375 -0.007,0.03 -0.015,0.0974 -0.0225,0.19479 -0.045,0.56939 -0.015,0.37461 -0.015,0.74921 0,0.38209 0.015,0.59187 0.0749,0.97396 0.32965,1.64076 0.26222,0.66679 0.62933,0.86158 0.31466,0.14984 0.66679,0.1873 0.11238,0.015 0.20978,0.015 0.22476,0 0.39707,-0.0599 0.0749,-0.0225 0.17981,-0.0674 0.10489,-0.0524 0.1948,-0.10489 z"
           id="path4155" /></g></g></g></svg>
